<?xml version="1.0" encoding="utf-8"?>
<!-- Generator: Adobe Illustrator 26.0.3, SVG Export Plug-In . SVG Version: 6.00 Build 0)  -->
<svg version="1.1" id="Layer_1" xmlns="http://www.w3.org/2000/svg" xmlns:xlink="http://www.w3.org/1999/xlink" x="0px" y="0px"
	 viewBox="0 0 512 512" style="enable-background:new 0 0 512 512;" xml:space="preserve">
<style type="text/css">
	.st0{fill:#FFFFFF;}
</style>
<g>
	<g>
		<g>
			<path class="st0" d="M407.9,100.8c-1.4,0-3.4-0.7-4.8-2c-2.7-2.7-2.7-6.8-0.7-9.5l55.9-62.7c2.7-2.7,6.8-2.7,9.5-0.7
				c2.7,2.7,2.7,6.8,0.7,9.5l-55.9,62.7C411.3,99.4,410,100.8,407.9,100.8z"/>
		</g>
	</g>
	<g>
		<g>
			<path class="st0" d="M384.1,74.9c-0.7,0-1.4,0-2.7-0.7c-3.4-1.4-5.5-5.5-4.1-8.9l20.5-52.5c1.4-3.4,5.5-5.5,8.9-4.1
				s5.5,5.5,4.1,8.9l-20.5,52.5C388.8,72.8,386.8,74.9,384.1,74.9z"/>
		</g>
	</g>
	<g>
		<g>
			<path class="st0" d="M78,149.2c-2,0-3.4-0.7-4.8-2L20,92.6c-2.7-2.7-2.7-6.8,0-9.5s6.8-2.7,9.5,0l53.2,54.5
				c2.7,2.7,2.7,6.8,0,9.5C81.4,148.5,80,149.2,78,149.2z"/>
		</g>
	</g>
	<g>
		<g>
			<path class="st0" d="M63,175.8c-0.7,0-2,0-2.7-0.7l-45.7-21.8c-3.4-1.4-4.8-5.5-3.4-8.9s5.5-4.8,8.9-3.4l45.7,21.8
				c3.4,1.4,4.8,5.5,3.4,8.9C67.7,174.4,65.7,175.8,63,175.8z"/>
		</g>
	</g>
	<g>
		<g>
			<path class="st0" d="M491.8,164.2c-8.2-7.5-20.5-10.9-32-6.8c-11.6,3.4-19.1,13-21.1,25.9l-15,64.8c-0.7,1.4-2,2.7-3.4,2.7
				s-3.4-0.7-4.1-2l-12.3-28.6l4.1-6.8c9.5-15,5.5-34.1-10.2-45c-5.5-3.4-11.6-6.1-18.4-6.1l-11.6-27.9c0.7-6.1-1.4-13-4.8-18.4
				c-2-2.7-4.1-5.5-6.8-8.2l-29.3-75.7c-6.8-16.4-19.1-23.9-32-18.4c-10.9,4.1-19.8,17-15,30.7l23.2,68.2c-0.7,0.7-1.4,2-2,3.4
				l-12.3,21.1l-5.5-10.9c3.4-18.4-8.9-34.1-23.2-40.2l-27.3-47.7c-5.5-10.2-13.6-13-19.8-13c-8.9,0-17.7,4.8-22.5,12.3
				c-2,4.1-5.5,12.3,0.7,22.5l23.9,43.6c-1.4,2-2,4.1-3.4,6.8l-8.9,21.8l-19.1-25.2c-11.6-15-25.2-14.3-33.4-8.2
				c-8.2,5.5-13.6,17.7-6.8,27.9l38.2,57.3L167.3,218L142,196.9c-11.6-9.5-22.5-7.5-28.6-1.4c-5.5,5.5-8.2,16.4,0.7,25.9
				c1.4,1.4,18.4,15.7,37.5,34.1l-11.6,28l-6.8-29.3c-3.4-17-14.3-30-29.3-35.4c-15-4.8-32-1.4-43.6,9.5
				c-12.3,11.6-16.4,29.3-11.6,48.4c2,7.5,4.1,16.4,6.1,24.5c12.3,50.4,26.6,107,51.8,147.2c20.5,32,60.7,55.2,94.8,55.2
				c4.1,0,8.2,0,11.6-0.7c30.7-5.5,67.5-19.8,110.4-78.4c6.1,2,13,3.4,19.1,4.8c3.4,0.7,6.8,0.7,10.2,0.7
				c30.7,0,68.9-21.8,87.9-51.8c25.9-40.9,40.2-100.2,53.2-152l0.7-3.4c2-8.2,4.1-15.7,5.5-22.5C503.3,186,500.6,172.4,491.8,164.2z
				 M419.5,290.3c-6.8,6.1-75,66.1-93.4,93.4c-8.2,13-15.7,24.5-23.2,34.1c-2,2.7-4.8,5.5-6.8,8.2c0,0,0,0.7-0.7,0.7
				c-11.6,13.6-21.8,24.5-32,32c-2,1.4-3.4,2.7-5.5,4.1l-0.7,0.7c-2,1.4-3.4,2.7-5.5,3.4c0,0-0.7,0-0.7,0.7
				c-5.5,3.4-10.9,6.1-15.7,8.2c0,0-0.7,0-0.7,0.7c-1.4,0.7-2.7,0.7-4.1,1.4c-0.7,0-1.4,0.7-2,0.7c-1.4,0.7-2,0.7-3.4,1.4
				c-0.7,0-2,0.7-2.7,0.7s-2,0.7-2.7,0.7c-1.4,0-2,0.7-3.4,0.7c-0.7,0-1.4,0.7-2,0.7c-2,0.7-4.1,0.7-5.5,1.4
				c-27.9,4.8-66.8-15.7-85.2-45c-23.9-37.5-37.5-92.7-49.1-141.1c-2-8.2-4.1-17-6.1-24.5C65,261.3,67,251.1,73.9,245
				c4.1-4.1,10.2-6.1,16.4-6.1c2.7,0,4.8,0.7,7.5,1.4c8.2,2.7,13.6,9.5,15.7,19.8l13.6,60.7c0.7,4.1,4.8,7.5,8.9,8.2
				c4.8,0,8.9-2,10.2-6.1l46.4-111.8l2-5.5l22.5-53.9l4.8-11.6l8.9-21.8c4.8-12.3,13-17,21.8-13.6c7.5,2.7,13.6,11.6,10.2,20.5
				L218.5,254l-2,5.5l-2,6.1c-2,4.8,0.7,10.2,5.5,13c4.8,2,10.2,0.7,13-4.1l33.4-57.9l4.1-6.8l39.5-68.2l2-3.4l7.5-12.3
				c2.7-5.5,7.5-8.2,12.3-8.2c6.1,0,12.3,3.4,15,8.2c2.7,4.8,2,9.5-0.7,15l-20.5,37.5l-4.1,6.8l-56.6,103.6
				c-2.7,4.8-1.4,10.9,3.4,13.6s10.2,2,13.6-2.7L363.7,192c6.8-8.9,15-11.6,22.5-6.1c5.5,3.4,8.9,10.9,4.8,17l-86,129
				c-2.7,4.1-2,10.2,1.4,13c3.4,2.7,9.5,3.4,13.6,0l81.8-68.2c8.2-6.8,14.3-5.5,18.4-1.4C423.6,278.7,425,284.2,419.5,290.3z"/>
		</g>
	</g>
</g>
</svg>
