<?xml version="1.0" encoding="utf-8"?>
<!-- Generator: Adobe Illustrator 25.2.3, SVG Export Plug-In . SVG Version: 6.00 Build 0)  -->
<svg version="1.1" id="Layer_1" xmlns="http://www.w3.org/2000/svg" xmlns:xlink="http://www.w3.org/1999/xlink" x="0px" y="0px"
	 viewBox="0 0 512 512" style="enable-background:new 0 0 512 512;" xml:space="preserve">
<style type="text/css">
	.st0{fill:#FFFFFF;}
	.st1{opacity:0.6;fill:#FFFFFF;}
</style>
<path class="st0" d="M305.1,9.5c4.4,4.8,6,6.4,9,10.1c50.7,61.5,22.2,100.7-22.1,162.6c-11.3,15.8-47.2,48.5-60.9,62.5
	c-29.3,30-49.8,42.4-58.3,76.8c-1.9,7.6-2.2,15.4-1,23.1c8,49,43.1,122.4,41.2,123.6c-64.2-47.9-160.1-128.9-104.6-212.9
	c13.4-20.3,48.9-46.1,81.3-71.8c37.1-29.9,62.4-50.9,88.1-90.1C298.1,62.7,304.9,41.8,305.1,9.5z"/>
<path class="st1" d="M398,243.5c23,31.8,22.9,63.1,0.3,95.2c-12.2,17.2-31,31-50,44.8c-46.5,33.5-80.9,70.5-74.3,119.1
	c-35.7-16.7-69.7-79.5-35.8-122.7c11.6-14.7,27.2-26.7,44.3-38.5c19-13,33-21.5,53.5-34.3C371.3,285,382,277.6,398,243.5z"/>
<circle class="st1" cx="372.9" cy="181.2" r="47.4"/>
</svg>
