<?xml version="1.0" encoding="utf-8"?>
<!-- Generator: Adobe Illustrator 25.2.3, SVG Export Plug-In . SVG Version: 6.00 Build 0)  -->
<svg version="1.1" id="图层_1" xmlns="http://www.w3.org/2000/svg" xmlns:xlink="http://www.w3.org/1999/xlink" x="0px" y="0px"
	 viewBox="0 0 789 730" style="enable-background:new 0 0 789 730;" xml:space="preserve">
<style type="text/css">
	.st0{fill:url(#SVGID_1_);}
	.st1{fill:#FFFFFF;}
</style>
<linearGradient id="SVGID_1_" gradientUnits="userSpaceOnUse" x1="111.3787" y1="253.9494" x2="735.7748" y2="481.3982">
	<stop  offset="6.926126e-08" style="stop-color:#00BCD4"/>
	<stop  offset="9.961458e-02" style="stop-color:#1EA9D8"/>
	<stop  offset="0.4466" style="stop-color:#836BE7"/>
	<stop  offset="1" style="stop-color:#D131F3"/>
</linearGradient>
<path class="st0" d="M135.2,179.6c-61,78.2-89.4,196.2-50.5,307.3c8.4,23.9,49.2,131.2,161.2,182.4c135.5,62,302.6,9,392.3-102.7
	c91.7-114.3,72.6-249,69.1-271c-17-104.8-88.7-238-213.4-268.4C381.8,0,277.3,68,225.5,101.7C197.8,119.7,165.6,140.7,135.2,179.6z"
	/>
<g>
	<path class="st1" d="M549.2,212.2"/>
	<path class="st1" d="M592.5,478.4H185.8V246.7c0-24.7,16.4-41.9,39.9-41.9h323.5c11.3-0.3,22.3,4,30.4,11.9
		c8.1,7.9,12.8,18.7,12.8,30.1V478.4z M200.6,463.5h377.1V246.7c-0.1-7.4-3.1-14.5-8.5-19.6c-5.4-5.1-12.6-7.9-20-7.6H225.7
		c-15.3,0-25.2,10.6-25.2,27.3V463.5z M200.6,463.5"/>
	<path class="st1" d="M567.8,537.5H203.1c-28.9,0-54.1-27.7-54.1-59.2v-14.7h473v14.7C622,509.8,596.7,537.5,567.8,537.5
		L567.8,537.5z M163.6,478.4c0,20.9,17.1,44.3,39.5,44.3h364.7c22.5,0,39.4-23.4,39.5-44.3H163.6z M163.6,478.4"/>
	<path class="st1" d="M265.4,413.3c-1.2,0-2.4-0.2-3.6-0.6c-4.4-1.5-7.3-5.6-7.2-10.2v-32.9h-5.3c-11.9-0.1-21.5-9.7-21.6-21.6v-86
		c0-11.9,9.6-21.5,21.5-21.5h139.9c11.9,0,21.5,9.6,21.5,21.5v86.4c0,11.7-9.5,21.2-21.3,21.3H305L273.8,409
		C271.8,411.7,268.7,413.2,265.4,413.3L265.4,413.3z M249.2,251.2c-5.9,0-10.7,4.8-10.8,10.8v86c0,6,4.9,10.8,10.9,10.9h16v43.7
		l34.4-43.7h89.6c5.8,0,10.5-4.7,10.5-10.5V262c0-5.9-4.8-10.7-10.7-10.8H249.2z M249.2,251.2"/>
	<path class="st1" d="M292.3,299.6H303v10.8h-10.8V299.6z M313.8,299.6h10.8v10.8h-10.8V299.6z M335.3,299.6h10.8v10.8h-10.8V299.6z
		 M335.3,299.6"/>
	<path class="st1" d="M528.6,454.9c-2.5,0-4.8-1.2-6.3-3.2L499,422.2h-63.1c-8.8,0-15.9-7.1-15.9-15.9v-64.6
		c0-8.9,7.2-16.1,16.1-16.1h104.6c8.9,0,16.1,7.2,16.1,16.1v64.3c0,8.9-7.2,16.1-16.1,16.2h-3.9v24.6c0,3.4-2.2,6.5-5.4,7.6
		C530.4,454.7,529.5,454.9,528.6,454.9L528.6,454.9z M436,333.7c-4.4,0-8,3.6-8,8.1v64.6c0,4.3,3.5,7.8,7.8,7.8h67l25.7,32.6v-32.6
		h12c4.5,0,8.1-3.6,8.1-8.1v-64.3c0-4.4-3.6-8-8-8H436z M540.7,333.7"/>
	<path class="st1" d="M508.4,377.9h-8v-8h8V377.9z M492.3,377.9h-8v-8h8V377.9z M476.2,377.9h-8v-8h8V377.9z M476.2,369.9"/>
</g>
</svg>
