<?xml version="1.0" encoding="utf-8"?>
<!-- Generator: Adobe Illustrator 25.2.3, SVG Export Plug-In . SVG Version: 6.00 Build 0)  -->
<svg version="1.1" id="Layer_1" xmlns="http://www.w3.org/2000/svg" xmlns:xlink="http://www.w3.org/1999/xlink" x="0px" y="0px"
	 viewBox="0 0 50 50" style="enable-background:new 0 0 50 50;" xml:space="preserve">
<style type="text/css">
	.st0{opacity:0.69;fill:url(#SVGID_1_);stroke:#00BCD4;stroke-miterlimit:10;enable-background:new    ;}
	.st1{opacity:0.5;}
	.st2{fill:#FFFFFF;}
	.st3{opacity:0.8;}
</style>
<linearGradient id="SVGID_1_" gradientUnits="userSpaceOnUse" x1="-140.7476" y1="44.2227" x2="-107.6965" y2="9.8754" gradientTransform="matrix(1 0 0 -1 147.3488 52)">
	<stop  offset="3.409785e-07" style="stop-color:#7657FC"/>
	<stop  offset="0.1478" style="stop-color:#6F5DFA"/>
	<stop  offset="0.3681" style="stop-color:#5A6FF3"/>
	<stop  offset="0.6337" style="stop-color:#398BE7"/>
	<stop  offset="0.9322" style="stop-color:#0BB2D8"/>
	<stop  offset="1" style="stop-color:#00BCD4"/>
</linearGradient>
<path class="st0" d="M45,9.3C43.9,8.4,42.6,8,40.9,8H9.1c-1.6,0-3,0.4-4,1.4c-1.1,0.9-1.7,2-1.7,3.3v29.6c0,0.2,0,0.3,0,0.4
	c0,0.2,0.1,0.3,0.2,0.4c0.2,0.2,0.5,0.3,0.8,0.3c0.4,0,0.7-0.1,1-0.3l6.6-4.7h28.9c1.6-0.1,3-0.5,4.1-1.4c1.1-0.9,1.7-2,1.7-3.3v-21
	C46.7,11.3,46.1,10.2,45,9.3z"/>
<g class="st1">
	<g>
		<path class="st2" d="M37.8,26.8c0-0.6-0.2-1.1-0.7-1.5s-1.1-0.6-1.9-0.6h-20c-0.7,0-1.3,0.2-1.8,0.6c-0.4,0.4-0.7,0.9-0.7,1.5
			s0.2,1.1,0.7,1.5s1.1,0.6,1.8,0.6h19.7c0.8,0,1.4-0.2,2-0.6C37.4,27.9,37.7,27.4,37.8,26.8z"/>
	</g>
</g>
<g class="st3">
	<g>
		<path class="st2" d="M37.8,19c0-0.6-0.2-1.1-0.7-1.5s-1.1-0.6-1.9-0.6h-20c-0.7,0-1.3,0.2-1.8,0.6c-0.4,0.4-0.7,0.9-0.7,1.5
			s0.2,1.1,0.7,1.5s1.1,0.6,1.8,0.6h19.7c0.8,0,1.4-0.2,2-0.6C37.4,20.1,37.7,19.6,37.8,19z"/>
	</g>
</g>
</svg>
