<?xml version="1.0" encoding="utf-8"?>
<!-- Generator: Adobe Illustrator 25.2.3, SVG Export Plug-In . SVG Version: 6.00 Build 0)  -->
<svg version="1.1" id="图层_1" xmlns="http://www.w3.org/2000/svg" xmlns:xlink="http://www.w3.org/1999/xlink" x="0px" y="0px"
	 viewBox="0 0 789 730" style="enable-background:new 0 0 789 730;" xml:space="preserve">
<style type="text/css">
	.st0{fill:url(#SVGID_1_);}
	.st1{fill:none;stroke:#FFFFFF;stroke-width:10;stroke-miterlimit:10;}
	.st2{fill:#FFFFFF;}
</style>
<linearGradient id="SVGID_1_" gradientUnits="userSpaceOnUse" x1="111.3787" y1="253.9494" x2="735.7748" y2="481.3982">
	<stop  offset="6.926126e-08" style="stop-color:#00BCD4"/>
	<stop  offset="9.961458e-02" style="stop-color:#1EA9D8"/>
	<stop  offset="0.4466" style="stop-color:#836BE7"/>
	<stop  offset="1" style="stop-color:#D131F3"/>
</linearGradient>
<path class="st0" d="M135.2,179.6c-61,78.2-89.4,196.2-50.5,307.3c8.4,23.9,49.2,131.2,161.2,182.4c135.5,62,302.6,9,392.3-102.7
	c91.7-114.3,72.6-249,69.1-271c-17-104.8-88.7-238-213.4-268.4C381.8,0,277.3,68,225.5,101.7C197.8,119.7,165.6,140.7,135.2,179.6z"
	/>
<g>
	<path class="st1" d="M625.8,286.9c-3.6-2.7-9.1-1.8-11.8,2.7c-4.6,6.4-10.9,10-15.5,10.9c0-10-4.6-20-13.7-29.1
		c-8.2-8.2-20.9-10-29.1-3.6c-6.4,4.6-10.9,14.6-4.6,28.2c4.6,8.2,11.8,15.5,21.8,19.1c-1.8,0.9-3.6,2.7-6.4,3.6
		c-5.5,2.7-10,4.6-15.5,4.6c-24.6-50.1-88.3-85.6-162.9-85.6c-14.6,0-29.1,0.9-41.9,2.7c-21.8-13.7-61-30.9-101-28.2
		c1.8,16.4,11.8,38.2,25.5,52.8c-25.5,15.5-41.9,37.3-50.1,61.9c-10,4.6-20,7.3-31.9,7.3c-8.2,0.9-14.6,8.2-14.6,16.4
		c1.8,21.8,8.2,59.2,33.7,69.2c4.6,1.8,12.7,2.7,21.8,3.6c10.9,18.2,27.3,33.7,46.4,45.5c-3.6,16.4-7.3,32.8-12.7,50.1
		c-1.8,7.3,3.6,14.6,10.9,14.6h48.2c4.6,0,9.1-2.7,10.9-7.3c3.6-10,7.3-20.9,10-30.9c14.6,2.7,29.1,4.6,44.6,4.6
		c18.2,0,35.5-1.8,51-5.5c-1.8,8.2-4.6,17.3-7.3,25.5c-1.8,7.3,3.6,14.6,10.9,14.6h48.2c4.6,0,9.1-2.7,10.9-7.3
		c8.2-22.8,14.6-47.3,17.3-72.8c26.4-22.8,41.9-52.8,41.9-85.6c0-10-1.8-20-4.6-29.1c5.5-0.9,10.9-2.7,16.4-5.5
		c9.1-4.6,15.5-10,19.1-15.5c14.6,0,28.2-7.3,35.5-19.1C631.3,294.2,630.4,288.8,625.8,286.9z M566.6,286.9
		c-1.8-3.6-1.8-6.4-0.9-6.4c0,0,0.9,0,1.8,0c1.8,0,3.6,0.9,5.5,2.7c5.5,5.5,8.2,10.9,9.1,16.4C574.8,296.9,569.4,292.4,566.6,286.9z
		"/>
	<path class="st2" d="M285.4,327.9c-8.2,0-14.6-6.4-14.6-14.6c0-8.2,6.4-14.6,14.6-14.6c8.2,0,14.6,6.4,14.6,14.6
		C299,321.5,292.6,327.9,285.4,327.9L285.4,327.9z"/>
	<path class="st2" d="M434.6,344.3c-6.4,1.8-12.7-0.9-14.6-7.3c-1.8-4.6-7.3-9.1-17.3-9.1c-8.2,0-13.7,5.5-13.7,10.9
		c-0.9,6.4,5.5,11.8,16.4,14.6c25.5,5.5,35.5,23.7,34.6,39.1c-1.8,13.7-11.8,25.5-25.5,29.1v7.3c0,6.4-5.5,11.8-11.8,11.8
		s-11.8-5.5-11.8-11.8v-6.4c-15.5-3.6-24.6-14.6-28.2-23.7c-1.8-6.4,0.9-12.7,7.3-14.6c6.4-1.8,12.7,0.9,14.6,7.3
		c1.8,4.6,7.3,9.1,17.3,9.1c8.2,0,13.7-5.5,13.7-10.9c0.9-6.4-5.5-11.8-16.4-14.6c-25.5-5.5-35.5-23.7-34.6-39.1
		c1.8-13.7,11.8-25.5,25.5-29.1v-7.3c0-6.4,5.5-11.8,11.8-11.8c6.4,0,11.8,5.5,11.8,11.8v6.4c15.5,3.6,24.6,14.6,28.2,23.7
		C443.8,336.1,440.1,342.5,434.6,344.3L434.6,344.3z"/>
	<path class="st1" d="M566.6,286.9"/>
</g>
</svg>
