<?xml version="1.0" encoding="utf-8"?>
<!-- Generator: Adobe Illustrator 25.2.3, SVG Export Plug-In . SVG Version: 6.00 Build 0)  -->
<svg version="1.1" id="Layer_1" xmlns="http://www.w3.org/2000/svg" xmlns:xlink="http://www.w3.org/1999/xlink" x="0px" y="0px"
	 viewBox="0 0 50 50" style="enable-background:new 0 0 50 50;" xml:space="preserve">
<style type="text/css">
	.st0{opacity:0.69;fill:url(#SVGID_1_);stroke:#00BCD4;stroke-miterlimit:10;enable-background:new    ;}
	.st1{opacity:0.5;fill:#FFFFFF;}
	.st2{opacity:0.8;fill:#FFFFFF;}
</style>
<linearGradient id="SVGID_1_" gradientUnits="userSpaceOnUse" x1="-140.7476" y1="44.2227" x2="-107.6965" y2="9.8754" gradientTransform="matrix(-1 0 0 -1 -97.3488 52)">
	<stop  offset="3.409785e-07" style="stop-color:#7657FC"/>
	<stop  offset="0.1478" style="stop-color:#6F5DFA"/>
	<stop  offset="0.3681" style="stop-color:#5A6FF3"/>
	<stop  offset="0.6337" style="stop-color:#398BE7"/>
	<stop  offset="0.9322" style="stop-color:#0BB2D8"/>
	<stop  offset="1" style="stop-color:#00BCD4"/>
</linearGradient>
<path class="st0" d="M3.3,12.7v21C3.3,35,3.9,36.1,5,37c1.1,0.9,2.5,1.3,4.1,1.4H38l6.6,4.7c0.3,0.2,0.6,0.3,1,0.3
	c0.3,0,0.6-0.1,0.8-0.3c0.1-0.1,0.2-0.2,0.2-0.4c0-0.1,0-0.2,0-0.4V12.7c0-1.3-0.6-2.4-1.7-3.3c-1-1-2.4-1.4-4-1.4H9.1
	C7.4,8,6.1,8.4,5,9.3C3.9,10.2,3.3,11.3,3.3,12.7z"/>
<path class="st1" d="M13.1,28.3c0.6,0.4,1.2,0.6,2,0.6h19.7c0.7,0,1.3-0.2,1.8-0.6s0.7-0.9,0.7-1.5s-0.3-1.1-0.7-1.5
	c-0.5-0.4-1.1-0.6-1.8-0.6h-20c-0.8,0-1.4,0.2-1.9,0.6s-0.7,0.9-0.7,1.5C12.3,27.4,12.6,27.9,13.1,28.3z"/>
<path class="st2" d="M13.1,20.5c0.6,0.4,1.2,0.6,2,0.6h19.7c0.7,0,1.3-0.2,1.8-0.6s0.7-0.9,0.7-1.5s-0.3-1.1-0.7-1.5
	c-0.5-0.4-1.1-0.6-1.8-0.6h-20c-0.8,0-1.4,0.2-1.9,0.6s-0.7,0.9-0.7,1.5C12.3,19.6,12.6,20.1,13.1,20.5z"/>
</svg>
