<?xml version="1.0" encoding="utf-8"?>
<!-- Generator: Adobe Illustrator 25.2.3, SVG Export Plug-In . SVG Version: 6.00 Build 0)  -->
<svg version="1.1" id="图层_1" xmlns="http://www.w3.org/2000/svg" xmlns:xlink="http://www.w3.org/1999/xlink" x="0px" y="0px"
	 viewBox="0 0 789 730" style="enable-background:new 0 0 789 730;" xml:space="preserve">
<style type="text/css">
	.st0{fill:url(#SVGID_1_);}
	.st1{fill:#FFFFFF;}
	.st2{fill:none;stroke:#FFFFFF;stroke-width:10;stroke-miterlimit:10;}
</style>
<linearGradient id="SVGID_1_" gradientUnits="userSpaceOnUse" x1="111.3787" y1="253.9494" x2="735.7748" y2="481.3982">
	<stop  offset="6.926126e-08" style="stop-color:#00BCD4"/>
	<stop  offset="9.961458e-02" style="stop-color:#1EA9D8"/>
	<stop  offset="0.4466" style="stop-color:#836BE7"/>
	<stop  offset="1" style="stop-color:#D131F3"/>
</linearGradient>
<path class="st0" d="M135.2,179.6c-61,78.2-89.4,196.2-50.5,307.3c8.4,23.9,49.2,131.2,161.2,182.4c135.5,62,302.6,9,392.3-102.7
	c91.7-114.3,72.6-249,69.1-271c-17-104.8-88.7-238-213.4-268.4C381.8,0,277.3,68,225.5,101.7C197.8,119.7,165.6,140.7,135.2,179.6z"
	/>
<g>
	<g>
		<path class="st1" d="M282.2,443.9l-28.6,28.6c-3.7,3.7-3.7,10.1,0,14.3c2.1,2.1,4.8,3.2,6.9,3.2c2.6,0,5.3-1.1,6.9-3.2l28.6-28.6
			c3.7-3.7,3.7-10.1,0-14.3C292.8,440.2,286.4,440.2,282.2,443.9L282.2,443.9z"/>
		<path class="st1" d="M258.4,351.8c0-5.3-4.8-10.1-10.1-10.1h-40.2c-5.3,0-10.1,4.8-10.1,10.1c0,5.3,4.8,10.1,10.1,10.1h40.2
			C253.6,361.9,258.4,357.1,258.4,351.8L258.4,351.8z"/>
		<path class="st1" d="M389,220.7c5.3,0,10.1-4.8,10.1-10.1v-40.2c0-5.3-4.8-10.1-10.1-10.1s-10.1,4.8-10.1,10.1v40.2
			C379,216.4,383.2,220.7,389,220.7L389,220.7z"/>
		<path class="st1" d="M488.5,261.9c2.6,0,5.3-1.1,6.9-3.2l28.6-28.6c3.7-3.7,3.7-10.1,0-14.3c-3.7-3.7-10.1-3.7-14.3,0l-28.6,28.6
			c-3.7,3.7-3.7,10.1,0,14.3C483.2,261.4,485.8,261.9,488.5,261.9L488.5,261.9z"/>
		<path class="st1" d="M282.2,259.3c2.1,2.1,4.8,3.2,6.9,3.2c2.6,0,5.3-1.1,6.9-3.2c3.7-3.7,3.7-10.1,0-14.3l-28.6-28.6
			c-3.7-3.7-10.1-3.7-14.3,0c-3.7,3.7-3.7,10.1,0,14.3L282.2,259.3z"/>
		<path class="st1" d="M569.9,341.8h-40.2c-5.3,0-10.1,4.8-10.1,10.1c0,5.3,4.8,10.1,10.1,10.1h40.2c5.3,0,10.1-4.8,10.1-10.1
			C580,346,575.8,341.8,569.9,341.8L569.9,341.8z"/>
		<path class="st1" d="M495.9,443.9c-3.7-3.7-10.1-3.7-14.3,0c-3.7,3.7-3.7,10.1,0,14.3l28.6,28.6c2.1,2.1,4.8,3.2,6.9,3.2
			c2.6,0,5.3-1.1,6.9-3.2c3.7-3.7,3.7-10.1,0-14.3L495.9,443.9z"/>
	</g>
	<g>
		<path class="st2" d="M438.8,556c-1.6,4.2-5.8,6.9-10.1,6.9l0,0c-5.8,0-11.1,3.2-13.8,8.5l0,0c-3.7,6.9-10.6,11.6-18.5,11.6h-14.8
			c-7.9,0-14.8-4.2-18.5-11.6l0,0c-2.6-5.3-7.9-8.5-13.8-8.5l0,0c-4.2,0-8.5-2.6-10.1-6.9c-2.1-6.9,3.2-13.2,9.5-13.2h80.4
			C435.6,542.8,440.9,549.1,438.8,556L438.8,556z"/>
		<path class="st2" d="M429.2,517.4h-80.4c-5.3,0-10.1,4.8-10.1,10.1c0,5.3,4.8,10.1,10.1,10.1h80.4c5.3,0,10.1-4.8,10.1-10.1
			C439.3,522.2,434.5,517.4,429.2,517.4L429.2,517.4z"/>
		<path class="st2" d="M439.3,502.6c0,5.3-4.8,10.1-10.1,10.1h-80.4c-5.3,0-10.1-4.8-10.1-10.1c0-5.3,4.2-9.5,9.5-10.1
			c-6.3-56.6-65.1-69.3-65.1-135.9c0-58.2,47.1-105.8,105.8-105.8c58.2,0,105.8,47.1,105.8,105.8c0,66.6-58.7,79.3-64.5,135.9
			C435.1,492.5,439.3,497.3,439.3,502.6L439.3,502.6z"/>
	</g>
	<path class="st2" d="M429.2,331.2"/>
	<path class="st1" d="M417.6,325.9c-10.6-2.6-21.2,4.8-28,12.7c-6.9-7.9-18-15.3-29.1-12.7c-10.6,2.6-18.5,11.1-20.6,21.7
		c-2.1,9,1.1,15.9,3.7,22.2l0,0c9,19,24.9,34.9,43.9,45l1.1,0.5l1.1-0.5c19.6-10.1,35.4-25.9,45-45.5l1.1-1.6
		c2.6-6.3,5.8-12.7,2.6-22.2C435.1,336.5,427.1,328.6,417.6,325.9z"/>
</g>
</svg>
