<?xml version="1.0" encoding="utf-8"?>
<!-- Generator: Adobe Illustrator 25.2.3, SVG Export Plug-In . SVG Version: 6.00 Build 0)  -->
<svg version="1.1" id="图层_1" xmlns="http://www.w3.org/2000/svg" xmlns:xlink="http://www.w3.org/1999/xlink" x="0px" y="0px"
	 viewBox="0 0 789 730" style="enable-background:new 0 0 789 730;" xml:space="preserve">
<style type="text/css">
	.st0{fill:url(#SVGID_1_);}
	.st1{fill:none;stroke:#FFFFFF;stroke-width:10;stroke-miterlimit:10;}
	.st2{fill:#FFFFFF;}
</style>
<linearGradient id="SVGID_1_" gradientUnits="userSpaceOnUse" x1="111.3787" y1="253.9494" x2="735.7748" y2="481.3982">
	<stop  offset="6.926126e-08" style="stop-color:#00BCD4"/>
	<stop  offset="9.961458e-02" style="stop-color:#1EA9D8"/>
	<stop  offset="0.4466" style="stop-color:#836BE7"/>
	<stop  offset="1" style="stop-color:#D131F3"/>
</linearGradient>
<path class="st0" d="M135.2,179.6c-61,78.2-89.4,196.2-50.5,307.3c8.4,23.9,49.2,131.2,161.2,182.4c135.5,62,302.6,9,392.3-102.7
	c91.7-114.3,72.6-249,69.1-271c-17-104.8-88.7-238-213.4-268.4C381.8,0,277.3,68,225.5,101.7C197.8,119.7,165.6,140.7,135.2,179.6z"
	/>
<g>
	<path class="st1" d="M615.5,221.9v78.5c0,27.3-22.2,48.9-48.9,48.9h-79.7c-13.1,19.3-41,24.5-41,24.5l6.3-24.5h-1.1
		c-27.3,0-48.9-22.2-48.9-48.9v-78.5c0-27.3,22.2-48.9,48.9-48.9h115.5C593.9,173,615.5,194.6,615.5,221.9L615.5,221.9z"/>
	<g>
		<rect x="494.9" y="298.2" class="st2" width="18.2" height="17.6"/>
		<path class="st2" d="M538.7,236.7c0-17.6-15.4-27.9-32.4-27.9c-17.6,0-27.9,10.8-27.9,10.8l10.2,13.1c0,0,7.4-6.3,15.9-6.3
			c8,0,14.2,5.1,14.2,12.5c0,15.4-24.5,18.8-24.5,39.8v6.8h18.2V280C513.1,263.5,538.7,261.2,538.7,236.7L538.7,236.7z"/>
	</g>
	<path class="st1" d="M350,422.3c22.6-12.2,37.9-36.1,37.9-63.6c0-39.8-32.4-72.3-72.3-72.3c-39.8,0-72.3,32.4-72.3,72.3
		c0,27.4,15.4,51.3,37.9,63.5c-43.5,1-78.3,36.4-78.3,80.2v31.9h224.2v-31.9C427.7,458.9,393.2,423.6,350,422.3z"/>
	<path d="M345.2,467.7"/>
</g>
</svg>
