<?xml version="1.0" encoding="utf-8"?>
<!-- Generator: Adobe Illustrator 25.2.3, SVG Export Plug-In . SVG Version: 6.00 Build 0)  -->
<svg version="1.1" id="图层_1" xmlns="http://www.w3.org/2000/svg" xmlns:xlink="http://www.w3.org/1999/xlink" x="0px" y="0px"
	 viewBox="0 0 789 730" style="enable-background:new 0 0 789 730;" xml:space="preserve">
<style type="text/css">
	.st0{fill:url(#SVGID_1_);}
	.st1{fill:#FFFFFF;}
	.st2{fill:none;stroke:#FFFFFF;stroke-width:10;stroke-miterlimit:10;}
</style>
<linearGradient id="SVGID_1_" gradientUnits="userSpaceOnUse" x1="111.3787" y1="253.9494" x2="735.7748" y2="481.3982">
	<stop  offset="6.926126e-08" style="stop-color:#00BCD4"/>
	<stop  offset="9.961458e-02" style="stop-color:#1EA9D8"/>
	<stop  offset="0.4466" style="stop-color:#836BE7"/>
	<stop  offset="1" style="stop-color:#D131F3"/>
</linearGradient>
<path class="st0" d="M135.2,179.6c-61,78.2-89.4,196.2-50.5,307.3c8.4,23.9,49.2,131.2,161.2,182.4c135.5,62,302.6,9,392.3-102.7
	c91.7-114.3,72.6-249,69.1-271c-17-104.8-88.7-238-213.4-268.4C381.8,0,277.3,68,225.5,101.7C197.8,119.7,165.6,140.7,135.2,179.6z"
	/>
<g>
	<path class="st1" d="M265.9,442.3l-39.8,45.1c-2.1,2.1-4.8,3.2-7.4,3.2c-2.1,0-4.2-0.5-6.4-2.1L188,468.6c-4.2-3.2-4.8-9.7-1.6-14
		c3.2-4.3,9.5-4.8,13.8-1.6l17.5,14l33.4-38.2c3.7-4.3,10.1-4.3,13.8-1.1C269.1,432.1,269.1,438.5,265.9,442.3L265.9,442.3z"/>
	<path class="st2" d="M265.9,442.3"/>
	<path class="st2" d="M370.4,281.6"/>
	<g>
		<path class="st1" d="M307.7,314.9l27-21c6.9-5.4,9-8.6,9-12.9c0-4.8-3.2-7.5-8-7.5c-4.8,0-8.5,2.7-14.3,9.1l-13.3-11.3
			c8-10.2,15.4-15.6,29.2-15.6c15.9,0,26.5,9.7,26.5,23.1l0,0c0,11.8-5.8,17.7-16.4,25.3l-12.2,8.6H365v16.7h-56.7v-14.5H307.7z"/>
	</g>
	<path class="st2" d="M486.4,442.3"/>
	<g>
		<path class="st1" d="M413.8,484.2l12.7-12.9c5.3,5.4,10.6,8.1,17,8.1c5.8,0,9-2.7,9-7.5l0,0c0-4.8-4.2-7.5-11.7-7.5h-8.5
			l-2.7-10.7l16.4-15h-27.6v-16.1h51.9v14.5l-17,15c10.1,2.1,18.6,8.1,18.6,20.4l0,0c0,14.5-11.7,24.2-27.6,24.2
			C430.3,497.1,420.7,491.7,413.8,484.2z"/>
	</g>
	<path class="st2" d="M545.9,230c-35.5,0-64.1,29-64.1,65c0,20.1,8.9,38,23,49.9l-36.4,50.4c-7.4-3-15.4-4.7-23.7-4.7
		c-8.3,0-16.3,1.6-23.6,4.5l-41.1-50.5c13.9-11.9,22.8-29.7,22.8-49.7c0-36-28.6-65-64.1-65s-64.1,29-64.1,65
		c0,21.8,10.5,41,26.6,52.8l-39.9,54.9c-10.5-7.6-23.3-12-37-12c-35.5,0-64.1,29-64.1,65c0,36,28.6,65,64.1,65
		c35.5,0,64.1-29,64.1-65c0-13-3.8-25.1-10.3-35.3l45.3-62.3c4.9,1.2,10,1.9,15.3,1.9c7.1,0,14-1.2,20.4-3.4l42.1,51.3
		c-12.6,11.9-20.6,28.8-20.6,47.8c0,36,28.6,65,64.1,65s64.1-29,64.1-65c0-18.4-7.6-34.9-19.7-46.7l37.5-51.9c6.1,1.9,12.6,3,19.3,3
		c35.5,0,64.1-29,64.1-65C610,259,581.4,230,545.9,230z"/>
	<path class="st2" d="M598.8,281.6"/>
	<g>
		<path class="st1" d="M548,319.2h-35l-3.2-14.5l37.1-45.1h20.1v44.1h9v15h-9v14H548L548,319.2L548,319.2z M548,304.2v-21l-17,21
			H548z"/>
	</g>
</g>
</svg>
