<?xml version="1.0" encoding="utf-8"?>
<!-- Generator: Adobe Illustrator 25.2.3, SVG Export Plug-In . SVG Version: 6.00 Build 0)  -->
<svg version="1.1" id="Layer_1" xmlns="http://www.w3.org/2000/svg" xmlns:xlink="http://www.w3.org/1999/xlink" x="0px" y="0px"
	 viewBox="0 0 50 50" style="enable-background:new 0 0 50 50;" xml:space="preserve">
<style type="text/css">
	.st0{opacity:0.8;fill:url(#SVGID_1_);stroke:#FFFFFF;stroke-miterlimit:10;}
	.st1{opacity:0.8;fill:#FFFFFF;}
</style>
<linearGradient id="SVGID_1_" gradientUnits="userSpaceOnUse" x1="6.5842" y1="11.0837" x2="35.9658" y2="40.4653">
	<stop  offset="2.024560e-07" style="stop-color:#FCEE21"/>
	<stop  offset="1" style="stop-color:#F7931E"/>
</linearGradient>
<path class="st0" d="M24.6,3.5C12.2,3.5,2.1,12,2.1,22.5c0,6.2,3.6,11.7,9.1,15.2c-0.5,3.1-2.3,6.9-4.7,9.4c5.9-0.5,11-2.3,14.4-5.9
	c1.2,0.2,2.4,0.3,3.6,0.3c12.4,0,22.5-8.5,22.5-18.9C47.1,12,37,3.5,24.6,3.5L24.6,3.5z"/>
<path class="st1" d="M30,19.5c-0.7,0.2-1.5-0.1-1.7-0.8c-0.3-0.9-1.4-1.9-3.4-1.9c-1.7,0-2.7,1.1-2.8,2.2c-0.1,1.4,1,2.5,3,2.9
	c4.2,0.9,5.4,3.7,5.2,5.8c-0.2,2.2-1.9,3.9-4.1,4.4v1.5c0,0.7-0.6,1.3-1.3,1.3c-0.7,0-1.3-0.6-1.3-1.3v-1.5
	c-2.6-0.4-4.1-2.1-4.6-3.6c-0.2-0.7,0.1-1.5,0.8-1.7c0.7-0.2,1.5,0.1,1.7,0.8c0.3,0.9,1.4,1.9,3.4,1.9c1.7,0,2.7-1.1,2.8-2.2
	c0.1-1.4-1-2.5-3-2.9c-4.2-0.9-5.4-3.7-5.2-5.8c0.2-2.2,1.9-3.9,4.1-4.4v-1.5c0-0.7,0.6-1.3,1.3-1.3c0.7,0,1.3,0.6,1.3,1.3v1.5
	c2.6,0.4,4.1,2.1,4.6,3.6C31,18.5,30.7,19.2,30,19.5L30,19.5z"/>
</svg>
