<?xml version="1.0" encoding="utf-8"?>
<!-- Generator: Adobe Illustrator 25.2.3, SVG Export Plug-In . SVG Version: 6.00 Build 0)  -->
<svg version="1.1" id="图层_1" xmlns="http://www.w3.org/2000/svg" xmlns:xlink="http://www.w3.org/1999/xlink" x="0px" y="0px"
	 viewBox="0 0 789 730" style="enable-background:new 0 0 789 730;" xml:space="preserve">
<style type="text/css">
	.st0{fill:url(#SVGID_1_);}
	.st1{fill:none;stroke:#FFFFFF;stroke-width:10;stroke-miterlimit:10;}
	.st2{fill:#FFFFFF;}
</style>
<linearGradient id="SVGID_1_" gradientUnits="userSpaceOnUse" x1="111.3787" y1="253.9494" x2="735.7748" y2="481.3982">
	<stop  offset="6.926126e-08" style="stop-color:#00BCD4"/>
	<stop  offset="9.961458e-02" style="stop-color:#1EA9D8"/>
	<stop  offset="0.4466" style="stop-color:#836BE7"/>
	<stop  offset="1" style="stop-color:#D131F3"/>
</linearGradient>
<path class="st0" d="M135.2,179.6c-61,78.2-89.4,196.2-50.5,307.3c8.4,23.9,49.2,131.2,161.2,182.4c135.5,62,302.6,9,392.3-102.7
	c91.7-114.3,72.6-249,69.1-271c-17-104.8-88.7-238-213.4-268.4C381.8,0,277.3,68,225.5,101.7C197.8,119.7,165.6,140.7,135.2,179.6z"
	/>
<g>
	<path class="st1" d="M519.6,180.6H256c-10.4,0-18.8,8.4-18.8,18.8v338.8c0,10.4,8.4,18.8,18.8,18.8h263.5
		c10.4,0,18.8-8.4,18.8-18.8V199.5C538.4,189.1,530,180.6,519.6,180.6L519.6,180.6z"/>
	<path class="st2" d="M331.3,237.1c0-3.2,2.6-6.5,6.5-6.5h100.6c3.2,0,6.5,2.6,6.5,6.5v6.5c0,3.2-2.6,6.5-6.5,6.5H337.8
		c-3.2,0-6.5-2.6-6.5-6.5V237.1z"/>
	<g>
		<path class="st2" d="M287.2,293.6c0-3.2,2.6-6.5,6.5-6.5h188.2c3.2,0,6.5,2.6,6.5,6.5l0,0c0,3.2-2.6,6.5-6.5,6.5H293.7
			C289.8,300.1,287.2,297.5,287.2,293.6L287.2,293.6z"/>
		<path class="st2" d="M287.2,337.7c0-3.2,2.6-6.5,6.5-6.5h188.2c3.2,0,6.5,2.6,6.5,6.5l0,0c0,3.2-2.6,6.5-6.5,6.5H293.7
			C289.8,344.2,287.2,341,287.2,337.7L287.2,337.7z"/>
		<path class="st2" d="M287.2,375.4c0-3.2,2.6-6.5,6.5-6.5h188.2c3.2,0,6.5,2.6,6.5,6.5l0,0c0,3.2-2.6,6.5-6.5,6.5H293.7
			C289.8,381.9,287.2,378.6,287.2,375.4L287.2,375.4z"/>
		<path class="st2" d="M287.2,413c0-3.2,2.6-6.5,6.5-6.5h188.2c3.2,0,6.5,2.6,6.5,6.5l0,0c0,3.2-2.6,6.5-6.5,6.5H293.7
			C289.8,419.5,287.2,416.3,287.2,413L287.2,413z"/>
		<path class="st2" d="M287.2,457.2L287.2,457.2c0-3.2,2.6-6.5,6.5-6.5h188.2c3.2,0,6.5,2.6,6.5,6.5l0,0c0,3.2-2.6,6.5-6.5,6.5
			H293.7C289.8,463,287.2,460.4,287.2,457.2L287.2,457.2z"/>
	</g>
	<path class="st2" d="M483.9,505.2c-4.5-4.5-4.5-4.5-14.3-4.5c-5.2,0-9.1,1.3-13.6,2.6c-4.5,1.9-10.4,3.2-17.5,3.2
		c-10.4,0-13.6-6.5-14.9-9.7c-1.3-2.6-1.3-2.6-3.9-2.6c-5.8,0-6.5,12.3-6.5,12.3h-12.3c0-8.4,3.9-25.3,18.8-25.3
		c10.4,0,13.6,6.5,14.9,9.7c1.3,2.6,1.3,2.6,3.9,2.6c5.2,0,9.1-1.3,13.6-2.6c4.5-1.9,10.4-3.2,17.5-3.2c13.6,0,15.6,0,23.4,8.4
		L483.9,505.2z"/>
	<path class="st2" d="M483.9,505.2"/>
	<rect x="237.2" y="180" class="st1" width="301.2" height="377.8"/>
</g>
</svg>
