<?xml version="1.0" encoding="utf-8"?>
<!-- Generator: Adobe Illustrator 25.2.3, SVG Export Plug-In . SVG Version: 6.00 Build 0)  -->
<svg version="1.1" id="图层_1" xmlns="http://www.w3.org/2000/svg" xmlns:xlink="http://www.w3.org/1999/xlink" x="0px" y="0px"
	 viewBox="0 0 789 730" style="enable-background:new 0 0 789 730;" xml:space="preserve">
<style type="text/css">
	.st0{fill:url(#SVGID_1_);}
	.st1{fill:none;stroke:#FFFFFF;stroke-width:10;stroke-miterlimit:10;}
	.st2{fill:#FFFFFF;}
</style>
<linearGradient id="SVGID_1_" gradientUnits="userSpaceOnUse" x1="111.3787" y1="253.9494" x2="735.7748" y2="481.3982">
	<stop  offset="6.926126e-08" style="stop-color:#00BCD4"/>
	<stop  offset="9.961458e-02" style="stop-color:#1EA9D8"/>
	<stop  offset="0.4466" style="stop-color:#836BE7"/>
	<stop  offset="1" style="stop-color:#D131F3"/>
</linearGradient>
<path class="st0" d="M135.2,179.6c-61,78.2-89.4,196.2-50.5,307.3c8.4,23.9,49.2,131.2,161.2,182.4c135.5,62,302.6,9,392.3-102.7
	c91.7-114.3,72.6-249,69.1-271c-17-104.8-88.7-238-213.4-268.4C381.8,0,277.3,68,225.5,101.7C197.8,119.7,165.6,140.7,135.2,179.6z"
	/>
<g>
	<path class="st1" d="M232.6,317.9c6.1,8.8,28.7,16.4,61.1,21.5c20.6-30.1,55.2-49.9,94.4-49.9c39.2,0,73.8,19.8,94.4,49.9
		c32.4-5.1,55-12.7,61.1-21.5c13.1-14.6,13.8-83.3,1.6-94.7c-2.7,2.2-5.3,4.3-8.6,6c-9.5,4.8-21.9,8.5-37.3,11.7
		c-29.7,6.2-70.3,9.6-111.3,9.9c-41-0.2-81.5-3.7-111.3-9.9c-15.4-3.2-43.2-15.5-45.9-17.7C213.9,246.5,219.5,303.3,232.6,317.9z"/>
	<path class="st1" d="M281.8,230.7c28.2,5.8,66.5,9.1,106.4,9.1c39.9,0,78.2-3.3,106.4-9.1c28.2-5.8,44-13.8,44-22
		c0-8.3-15.8-16.2-44-22c-28.2-5.8-66.5-9.1-106.4-9.1c-39.9,0-78.2,3.3-106.4,9.1c-28.2,5.8-44.1,13.8-44,22
		C237.7,217,253.6,224.9,281.8,230.7z"/>
	<path class="st1" d="M536.7,445.8c-9.5,4.8-21.9,8.5-37.3,11.7c-3.7,0.8-7.6,1.5-11.6,2.2c-19.6,34.8-56.9,58.4-99.7,58.4
		c-42.8,0-80.1-23.6-99.7-58.4c-4-0.7-7.9-1.4-11.6-2.2c-15.4-3.2-27.8-6.9-37.3-11.7c-3.3-1.6-5.9-3.9-8.6-6
		c-12.1,11.4-11.5,80.2,1.6,94.7c11.1,15.9,76.3,28,155.5,28.5c79.2-0.5,144.5-12.6,155.5-28.5c13.1-14.6,13.8-83.3,1.6-94.7
		C542.6,442,540,444.2,536.7,445.8z"/>
	<path class="st1" d="M281.8,445.6c-5.1-13-7.9-27.1-7.9-41.9c0-19,4.7-37,12.9-52.7c-3.4-0.6-6.7-1.2-9.9-1.9
		c-15.4-3.2-27.8-6.9-37.3-11.7c-3.3-1.6-5.9-3.9-8.6-6c-12.1,11.4-11.5,80.2,1.6,94.7C237.9,433.8,255.9,440.6,281.8,445.6z"/>
	<path class="st1" d="M536.7,337.5c-9.5,4.8-21.9,8.5-37.3,11.7c-3.2,0.7-6.5,1.3-9.9,1.9c8.2,15.8,12.9,33.7,12.9,52.7
		c0,14.8-2.8,28.9-7.9,41.8c25.9-5,43.9-11.8,49.2-19.4c13.1-14.5,13.8-83.3,1.6-94.7C542.6,333.6,540,335.8,536.7,337.5z"/>
	<path class="st2" d="M374.9,333.3c-13.4,0-24.2,10.9-24.2,24.2v24.4h-4.6c-9.9,0-17.8,7.9-17.8,17.8v56.7c0,9.9,7.9,17.8,17.8,17.8
		h84.2c9.9,0,17.8-7.9,17.8-17.8v-56.7c0-9.9-7.9-17.8-17.8-17.8h-4.6v-24.4c0-13.4-10.9-24.2-24.2-24.2H374.9z M374.9,346.3h26.5
		c6.4,0,11.3,4.8,11.3,11.2v24.4h-49v-24.4C363.7,351.2,368.5,346.3,374.9,346.3L374.9,346.3z M374.9,346.3"/>
</g>
</svg>
