<?xml version="1.0" encoding="utf-8"?>
<!-- Generator: Adobe Illustrator 25.2.3, SVG Export Plug-In . SVG Version: 6.00 Build 0)  -->
<svg version="1.1" id="Layer_1" xmlns="http://www.w3.org/2000/svg" xmlns:xlink="http://www.w3.org/1999/xlink" x="0px" y="0px"
	 viewBox="0 0 372.9 140.5" style="enable-background:new 0 0 372.9 140.5;" xml:space="preserve">
<style type="text/css">
	.st0{fill:#FBB03B;}
	.st1{fill:#212121;}
	.st2{fill:#FFFFFF;}
	.st3{fill:none;stroke:#FEEACA;stroke-miterlimit:10;}
</style>
<g>
	<g>
		<path class="st0" d="M20.5,87.1c87.3-1.1,174.6-2.1,262-3.2c11.6-0.1,23.3-0.4,34.9-0.3c5.9,0.1,11.8,0.2,17.7,0.7
			c2.7,0.2,5.4,0.4,8.1,0.8c-0.8-0.1-3-0.5,0.5,0.1c1.7,0.3,3.4,0.6,5.2,1c0-11.5,0-23,0-34.4c-7.1,1.2-11.4,5.8-15.5,11.2
			c2.4-3.2,4.9-7.4,10.5-6.1c-0.9-0.2-2.8,0.1-3.6,0.1c-3,0.1-6.1,0.2-9.1,0.3c-10.7,0.4-21.5,0.6-32.2,0.9
			c-21.9,0.5-43.9,0.7-65.8,0.9c-44.2,0.3-88.4,0.1-132.5,0.3c-11.3,0-22.6,0.2-33.8-0.1c-10.5-0.3-21.1-0.8-31.6-0.1
			c-9.3,0.6-18.3,7.8-17.9,17.9c0.4,9.1,7.9,18.5,17.9,17.9c19.2-1.3,38.8,0.3,58.1,0.2c22-0.1,44-0.1,66-0.1
			c44.7,0,89.4-0.1,134.1-0.9c12.3-0.2,24.6-0.6,36.9-1c6.5-0.2,13.9,0.3,20.3-1.4c3.9-1.1,7.3-3.2,10.2-6c1.4-1.4,2.3-3.1,3.5-4.6
			c-0.6,0.8-1.2,1.5-1.8,2.3c-6,2.7-7.3,3.6-4,2.9c17.3-3,16.8-31,0-34.4c-21.1-4.3-42.5-4-63.9-3.7c-22,0.3-44,0.5-66,0.8
			c-44.3,0.5-88.7,1.1-133,1.6c-25,0.3-50,0.6-75,0.9c-9.3,0.1-18.3,8.1-17.9,17.9C3,78.9,10.5,87.3,20.5,87.1L20.5,87.1z"/>
	</g>
</g>
<g>
	<g>
		<path class="st1" d="M46.3,30.9H37l-1.8,5.3h-5.6l9.5-25.6h4.9l9.6,25.6h-5.6L46.3,30.9z M38.5,26.6h6.4l-3.2-9.6L38.5,26.6z"/>
		<path class="st1" d="M72,26.9c0,2.9-0.7,5.3-2,7s-3.1,2.6-5.4,2.6c-1.9,0-3.5-0.7-4.7-2v9h-5.1V17.2h4.7l0.2,1.9
			c1.2-1.5,2.8-2.2,4.8-2.2c2.3,0,4.2,0.9,5.5,2.6s2,4.1,2,7.2V26.9z M66.9,26.5c0-1.8-0.3-3.1-0.9-4.1S64.4,21,63.3,21
			c-1.6,0-2.7,0.6-3.3,1.8v7.8c0.6,1.3,1.7,1.9,3.3,1.9C65.7,32.4,66.9,30.5,66.9,26.5z"/>
		<path class="st1" d="M92.3,26.9c0,2.9-0.7,5.3-2,7s-3.1,2.6-5.4,2.6c-1.9,0-3.5-0.7-4.7-2v9h-5.1V17.2h4.7L80,19
			c1.2-1.5,2.8-2.2,4.8-2.2c2.3,0,4.2,0.9,5.5,2.6s2,4.1,2,7.2V26.9z M87.2,26.5c0-1.8-0.3-3.1-0.9-4.1S84.7,21,83.5,21
			c-1.6,0-2.7,0.6-3.3,1.8v7.8c0.6,1.3,1.7,1.9,3.3,1.9C86,32.4,87.2,30.5,87.2,26.5z"/>
		<path class="st1" d="M100.8,36.2h-5.1v-27h5.1V36.2z"/>
		<path class="st1" d="M112.1,29l3.5-11.8h5.4l-7.6,22l-0.4,1c-1.1,2.5-3,3.7-5.6,3.7c-0.7,0-1.5-0.1-2.2-0.3v-3.8l0.8,0
			c1,0,1.7-0.1,2.2-0.4s0.8-0.8,1.1-1.5l0.6-1.6l-6.7-19.1h5.5L112.1,29z"/>
		<path class="st1" d="M123,12.2c0-0.8,0.3-1.4,0.8-1.9s1.2-0.7,2.1-0.7c0.9,0,1.6,0.2,2.1,0.7s0.8,1.1,0.8,1.9
			c0,0.8-0.3,1.4-0.8,1.9s-1.2,0.7-2.1,0.7s-1.5-0.2-2.1-0.7S123,13,123,12.2z M128.4,36.2h-5.1v-19h5.1V36.2z"/>
		<path class="st1" d="M137.3,17.2l0.2,2.2c1.4-1.7,3.2-2.5,5.5-2.5c2,0,3.5,0.6,4.5,1.8s1.5,3,1.5,5.3v12.3h-5.1V24
			c0-1.1-0.2-1.9-0.7-2.3s-1.2-0.7-2.3-0.7c-1.4,0-2.5,0.6-3.2,1.8v13.4h-5.1v-19H137.3z"/>
		<path class="st1" d="M152,26.5c0-2.9,0.7-5.3,2.1-7s3.3-2.7,5.6-2.7c2.1,0,3.7,0.7,4.9,2.1l0.2-1.8h4.6v18.4
			c0,1.7-0.4,3.1-1.1,4.3s-1.8,2.2-3.2,2.8s-3,1-4.8,1c-1.4,0-2.8-0.3-4.1-0.8s-2.3-1.3-3-2.2l2.2-3.1c1.3,1.4,2.8,2.1,4.6,2.1
			c1.3,0,2.4-0.4,3.1-1.1s1.1-1.7,1.1-3.1v-1c-1.2,1.3-2.7,2-4.6,2c-2.3,0-4.1-0.9-5.5-2.7s-2.1-4.2-2.1-7.1V26.5z M157.1,26.9
			c0,1.7,0.3,3.1,1,4.1c0.7,1,1.6,1.5,2.8,1.5c1.5,0,2.7-0.6,3.3-1.7v-8c-0.7-1.2-1.8-1.7-3.3-1.7c-1.2,0-2.2,0.5-2.9,1.5
			S157.1,24.9,157.1,26.9z"/>
		<path class="st2" d="M45.1,76.7c0-1-0.4-1.8-1.1-2.3s-2-1.1-3.8-1.7s-3.3-1.2-4.3-1.7c-2.9-1.6-4.4-3.7-4.4-6.3
			c0-1.4,0.4-2.6,1.2-3.7c0.8-1.1,1.9-1.9,3.4-2.5s3.1-0.9,4.9-0.9c1.8,0,3.5,0.3,4.9,1s2.5,1.6,3.3,2.8s1.2,2.6,1.2,4.1h-5.3
			c0-1.2-0.4-2.1-1.1-2.7s-1.8-1-3.1-1c-1.3,0-2.3,0.3-3,0.8s-1.1,1.3-1.1,2.2c0,0.8,0.4,1.5,1.3,2.1s2.1,1.1,3.7,1.6
			c3,0.9,5.2,2,6.6,3.4s2.1,3,2.1,5c0,2.2-0.8,4-2.5,5.2s-3.9,1.9-6.8,1.9c-2,0-3.8-0.4-5.4-1.1s-2.9-1.7-3.7-3
			c-0.8-1.3-1.3-2.7-1.3-4.4h5.3c0,2.8,1.7,4.2,5.1,4.2c1.3,0,2.2-0.3,2.9-0.8S45.1,77.6,45.1,76.7z"/>
		<path class="st2" d="M60.7,76.2l3.5-11.8h5.4l-7.6,22l-0.4,1c-1.1,2.5-3,3.7-5.6,3.7c-0.7,0-1.5-0.1-2.2-0.3v-3.8l0.8,0
			c1,0,1.7-0.1,2.2-0.4s0.8-0.8,1.1-1.5l0.6-1.6l-6.7-19.1h5.5L60.7,76.2z"/>
		<path class="st2" d="M82,78.1c0-0.6-0.3-1.1-0.9-1.5s-1.6-0.7-3-1c-4.5-0.9-6.8-2.9-6.8-5.8c0-1.7,0.7-3.1,2.1-4.2
			s3.2-1.7,5.5-1.7c2.4,0,4.3,0.6,5.8,1.7s2.2,2.6,2.2,4.4h-5.1c0-0.7-0.2-1.3-0.7-1.8s-1.2-0.7-2.2-0.7c-0.9,0-1.5,0.2-2,0.6
			s-0.7,0.9-0.7,1.5c0,0.6,0.3,1,0.8,1.4s1.4,0.6,2.7,0.9s2.3,0.5,3.2,0.9c2.7,1,4,2.7,4,5.1c0,1.7-0.7,3.1-2.2,4.2
			s-3.4,1.6-5.8,1.6c-1.6,0-3-0.3-4.2-0.9s-2.2-1.3-2.9-2.3s-1.1-2.1-1.1-3.2h4.8c0,0.9,0.4,1.6,1,2.1s1.5,0.7,2.5,0.7
			c1,0,1.7-0.2,2.2-0.6S82,78.7,82,78.1z"/>
		<path class="st2" d="M96.3,59.7v4.7h3.3v3.7h-3.3v9.5c0,0.7,0.1,1.2,0.4,1.5s0.8,0.5,1.5,0.5c0.6,0,1.1,0,1.5-0.1v3.8
			c-1,0.3-2,0.5-3.1,0.5c-3.6,0-5.4-1.8-5.4-5.4V68.1h-2.8v-3.7h2.8v-4.7H96.3z"/>
		<path class="st2" d="M111.1,83.7c-2.8,0-5.1-0.9-6.8-2.6s-2.6-4-2.6-6.8v-0.5c0-1.9,0.4-3.6,1.1-5.1s1.8-2.7,3.1-3.5
			s2.9-1.2,4.6-1.2c2.6,0,4.6,0.8,6.1,2.5s2.2,4,2.2,7v2.1h-12.1c0.2,1.2,0.7,2.2,1.5,3s1.9,1.1,3.1,1.1c2,0,3.5-0.7,4.6-2.1
			l2.5,2.8c-0.8,1.1-1.8,1.9-3.1,2.5S112.7,83.7,111.1,83.7z M110.6,68.1c-1,0-1.8,0.3-2.5,1c-0.6,0.7-1,1.7-1.2,2.9h7.1v-0.4
			c0-1.1-0.3-2-0.9-2.6C112.5,68.4,111.6,68.1,110.6,68.1z"/>
		<path class="st2" d="M126.6,64.4l0.2,2.1c1.3-1.7,3.2-2.5,5.5-2.5c2.4,0,4.1,1,5,2.9c1.3-1.9,3.2-2.9,5.7-2.9
			c2.1,0,3.6,0.6,4.6,1.8s1.5,3,1.5,5.4v12.1H144V71.3c0-1.1-0.2-1.9-0.6-2.4s-1.2-0.7-2.2-0.7c-1.5,0-2.6,0.7-3.2,2.2l0,13.1h-5.1
			V71.3c0-1.1-0.2-1.9-0.7-2.4s-1.2-0.7-2.2-0.7c-1.4,0-2.5,0.6-3.1,1.8v13.4h-5.1v-19H126.6z"/>
		<path class="st2" d="M164,83.4c-0.2-0.5-0.4-1-0.5-1.7c-1.2,1.4-2.8,2.1-4.8,2.1c-1.9,0-3.4-0.5-4.6-1.6s-1.8-2.4-1.8-4.1
			c0-2,0.7-3.6,2.2-4.6s3.7-1.6,6.5-1.6h2.3v-1.1c0-0.9-0.2-1.6-0.7-2.1s-1.2-0.8-2.1-0.8c-0.9,0-1.5,0.2-2,0.6s-0.7,1-0.7,1.7h-5.1
			c0-1.1,0.3-2.1,1-3.1s1.6-1.7,2.9-2.2s2.6-0.8,4.2-0.8c2.3,0,4.2,0.6,5.6,1.8s2.1,2.8,2.1,5V79c0,1.8,0.3,3.2,0.8,4.1v0.3H164z
			 M159.8,79.9c0.8,0,1.4-0.2,2.1-0.5s1.1-0.8,1.4-1.3v-3.3h-1.9c-2.5,0-3.9,0.9-4.1,2.6l0,0.3c0,0.6,0.2,1.2,0.7,1.6
			S159.1,79.9,159.8,79.9z"/>
		<path class="st2" d="M178.4,59.7v4.7h3.3v3.7h-3.3v9.5c0,0.7,0.1,1.2,0.4,1.5s0.8,0.5,1.5,0.5c0.6,0,1.1,0,1.5-0.1v3.8
			c-1,0.3-2,0.5-3.1,0.5c-3.6,0-5.4-1.8-5.4-5.4V68.1h-2.8v-3.7h2.8v-4.7H178.4z"/>
		<path class="st2" d="M184.4,59.4c0-0.8,0.3-1.4,0.8-1.9s1.2-0.7,2.1-0.7c0.9,0,1.6,0.2,2.1,0.7s0.8,1.1,0.8,1.9
			c0,0.8-0.3,1.4-0.8,1.9s-1.2,0.7-2.1,0.7s-1.5-0.2-2.1-0.7S184.4,60.2,184.4,59.4z M189.8,83.4h-5.1v-19h5.1V83.4z"/>
		<path class="st2" d="M201.9,79.6c0.9,0,1.7-0.3,2.3-0.8s0.9-1.2,0.9-2.1h4.8c0,1.3-0.4,2.5-1.1,3.5s-1.6,1.9-2.8,2.5
			s-2.5,0.9-4,0.9c-2.7,0-4.9-0.9-6.4-2.6s-2.4-4.1-2.4-7.2v-0.3c0-2.9,0.8-5.3,2.3-7s3.7-2.6,6.4-2.6c2.4,0,4.3,0.7,5.7,2
			s2.2,3.2,2.2,5.4h-4.8c0-1-0.3-1.8-0.9-2.4s-1.4-0.9-2.3-0.9c-1.2,0-2.1,0.4-2.7,1.3c-0.6,0.9-0.9,2.3-0.9,4.2v0.5
			c0,2,0.3,3.4,0.9,4.2C199.8,79.2,200.7,79.6,201.9,79.6z"/>
		<path class="st2" d="M235.4,76.7c0-1-0.4-1.8-1.1-2.3s-2-1.1-3.8-1.7s-3.3-1.2-4.3-1.7c-2.9-1.6-4.4-3.7-4.4-6.3
			c0-1.4,0.4-2.6,1.2-3.7s1.9-1.9,3.4-2.5s3.1-0.9,4.9-0.9c1.8,0,3.5,0.3,4.9,1s2.5,1.6,3.3,2.8s1.2,2.6,1.2,4.1h-5.3
			c0-1.2-0.4-2.1-1.1-2.7s-1.8-1-3.1-1c-1.3,0-2.3,0.3-3,0.8s-1.1,1.3-1.1,2.2c0,0.8,0.4,1.5,1.3,2.1s2.1,1.1,3.7,1.6
			c3,0.9,5.2,2,6.6,3.4s2.1,3,2.1,5c0,2.2-0.8,4-2.5,5.2s-3.9,1.9-6.8,1.9c-2,0-3.8-0.4-5.4-1.1s-2.9-1.7-3.7-3S221,77,221,75.3h5.3
			c0,2.8,1.7,4.2,5.1,4.2c1.3,0,2.2-0.3,2.9-0.8S235.4,77.6,235.4,76.7z"/>
		<path class="st2" d="M243.1,73.7c0-1.9,0.4-3.6,1.1-5s1.8-2.6,3.1-3.4s3-1.2,4.8-1.2c2.6,0,4.7,0.8,6.3,2.4s2.5,3.7,2.7,6.4l0,1.3
			c0,2.9-0.8,5.3-2.4,7s-3.8,2.6-6.6,2.6s-4.9-0.9-6.6-2.6s-2.5-4.1-2.5-7.2V73.7z M248.2,74.1c0,1.8,0.3,3.2,1,4.1s1.7,1.4,2.9,1.4
			c1.2,0,2.2-0.5,2.9-1.4c0.7-0.9,1-2.5,1-4.5c0-1.8-0.3-3.1-1-4.1c-0.7-1-1.7-1.5-2.9-1.5c-1.2,0-2.2,0.5-2.9,1.5
			C248.5,70.5,248.2,72,248.2,74.1z"/>
		<path class="st2" d="M269.6,83.4h-5.1v-27h5.1V83.4z"/>
		<path class="st2" d="M285.2,81.5c-1.3,1.5-3,2.3-5.2,2.3c-2,0-3.6-0.6-4.7-1.8s-1.6-2.9-1.6-5.2V64.4h5.1v12.3c0,2,0.9,3,2.7,3
			c1.7,0,2.9-0.6,3.6-1.8V64.4h5.1v19h-4.8L285.2,81.5z"/>
		<path class="st2" d="M300,59.7v4.7h3.3v3.7H300v9.5c0,0.7,0.1,1.2,0.4,1.5s0.8,0.5,1.5,0.5c0.6,0,1.1,0,1.5-0.1v3.8
			c-1,0.3-2,0.5-3.1,0.5c-3.6,0-5.4-1.8-5.4-5.4V68.1h-2.8v-3.7h2.8v-4.7H300z"/>
		<path class="st2" d="M306.1,59.4c0-0.8,0.3-1.4,0.8-1.9s1.2-0.7,2.1-0.7c0.9,0,1.6,0.2,2.1,0.7s0.8,1.1,0.8,1.9
			c0,0.8-0.3,1.4-0.8,1.9s-1.2,0.7-2.1,0.7s-1.5-0.2-2.1-0.7S306.1,60.2,306.1,59.4z M311.5,83.4h-5.1v-19h5.1V83.4z"/>
		<path class="st2" d="M314.8,73.7c0-1.9,0.4-3.6,1.1-5s1.8-2.6,3.1-3.4s3-1.2,4.8-1.2c2.6,0,4.7,0.8,6.3,2.4s2.5,3.7,2.7,6.4l0,1.3
			c0,2.9-0.8,5.3-2.4,7s-3.8,2.6-6.6,2.6s-4.9-0.9-6.6-2.6s-2.5-4.1-2.5-7.2V73.7z M319.9,74.1c0,1.8,0.3,3.2,1,4.1s1.7,1.4,2.9,1.4
			c1.2,0,2.2-0.5,2.9-1.4c0.7-0.9,1-2.5,1-4.5c0-1.8-0.3-3.1-1-4.1c-0.7-1-1.7-1.5-2.9-1.5c-1.2,0-2.2,0.5-2.9,1.5
			C320.3,70.5,319.9,72,319.9,74.1z"/>
		<path class="st2" d="M340.7,64.4l0.2,2.2c1.4-1.7,3.2-2.5,5.5-2.5c2,0,3.5,0.6,4.5,1.8s1.5,3,1.5,5.3v12.3h-5.1V71.2
			c0-1.1-0.2-1.9-0.7-2.3s-1.2-0.7-2.3-0.7c-1.4,0-2.5,0.6-3.2,1.8v13.4h-5.1v-19H340.7z"/>
		<path class="st1" d="M51.1,109.3h-7.8v21.3H38v-21.3h-7.7V105h20.8V109.3z"/>
		<path class="st1" d="M49.3,120.9c0-1.9,0.4-3.6,1.1-5s1.8-2.6,3.1-3.4s3-1.2,4.8-1.2c2.6,0,4.7,0.8,6.3,2.4s2.5,3.7,2.7,6.4l0,1.3
			c0,2.9-0.8,5.3-2.4,7c-1.6,1.8-3.8,2.6-6.6,2.6s-4.9-0.9-6.6-2.6c-1.6-1.8-2.5-4.1-2.5-7.2V120.9z M54.4,121.3
			c0,1.8,0.3,3.2,1,4.1s1.7,1.4,2.9,1.4c1.2,0,2.2-0.5,2.9-1.4c0.7-0.9,1-2.5,1-4.5c0-1.8-0.3-3.1-1-4.1c-0.7-1-1.7-1.5-2.9-1.5
			c-1.2,0-2.2,0.5-2.9,1.5C54.7,117.7,54.4,119.2,54.4,121.3z"/>
		<path class="st1" d="M88.6,116.5l5.3-11.5h5.8l-8.4,16.3v9.3h-5.4v-9.3L77.5,105h5.8L88.6,116.5z"/>
		<path class="st1" d="M99.8,120.9c0-1.9,0.4-3.6,1.1-5s1.8-2.6,3.1-3.4s3-1.2,4.8-1.2c2.6,0,4.7,0.8,6.3,2.4s2.5,3.7,2.7,6.4l0,1.3
			c0,2.9-0.8,5.3-2.4,7c-1.6,1.8-3.8,2.6-6.6,2.6s-4.9-0.9-6.6-2.6c-1.6-1.8-2.5-4.1-2.5-7.2V120.9z M104.8,121.3
			c0,1.8,0.3,3.2,1,4.1s1.7,1.4,2.9,1.4c1.2,0,2.2-0.5,2.9-1.4c0.7-0.9,1-2.5,1-4.5c0-1.8-0.3-3.1-1-4.1c-0.7-1-1.7-1.5-2.9-1.5
			c-1.2,0-2.2,0.5-2.9,1.5C105.2,117.7,104.8,119.2,104.8,121.3z"/>
		<path class="st1" d="M132.3,128.7c-1.3,1.5-3,2.3-5.2,2.3c-2,0-3.6-0.6-4.7-1.8s-1.6-2.9-1.6-5.2v-12.5h5.1v12.3c0,2,0.9,3,2.7,3
			c1.7,0,2.9-0.6,3.6-1.8v-13.5h5.1v19h-4.8L132.3,128.7z"/>
		<path class="st1" d="M151.7,116.3c-0.7-0.1-1.3-0.1-1.8-0.1c-1.9,0-3.2,0.7-3.8,2v12.4h-5.1v-19h4.8l0.1,2.3
			c1-1.7,2.4-2.6,4.2-2.6c0.6,0,1.1,0.1,1.6,0.2L151.7,116.3z"/>
		<path class="st1" d="M163.5,130.6V105h9c3.1,0,5.5,0.6,7.1,1.8s2.4,2.9,2.4,5.2c0,1.3-0.3,2.4-1,3.3s-1.5,1.7-2.7,2.1
			c1.3,0.3,2.3,1,3.1,2s1.1,2.2,1.1,3.7c0,2.5-0.8,4.3-2.4,5.6c-1.6,1.3-3.8,1.9-6.7,1.9H163.5z M168.8,115.7h3.9c2.7,0,4-1.1,4-3.2
			c0-1.2-0.3-2-1-2.5s-1.7-0.8-3.2-0.8h-3.7V115.7z M168.8,119.4v6.9h4.5c1.2,0,2.2-0.3,2.9-0.9s1-1.4,1-2.5c0-2.3-1.2-3.5-3.6-3.6
			H168.8z"/>
		<path class="st1" d="M197.5,128.7c-1.3,1.5-3,2.3-5.2,2.3c-2,0-3.6-0.6-4.7-1.8s-1.6-2.9-1.6-5.2v-12.5h5.1v12.3c0,2,0.9,3,2.7,3
			c1.7,0,2.9-0.6,3.6-1.8v-13.5h5.1v19h-4.8L197.5,128.7z"/>
		<path class="st1" d="M216.6,125.3c0-0.6-0.3-1.1-0.9-1.5s-1.6-0.7-3-1c-4.5-0.9-6.8-2.9-6.8-5.8c0-1.7,0.7-3.1,2.1-4.2
			s3.2-1.7,5.5-1.7c2.4,0,4.3,0.6,5.8,1.7s2.2,2.6,2.2,4.4h-5.1c0-0.7-0.2-1.3-0.7-1.8s-1.2-0.7-2.2-0.7c-0.9,0-1.5,0.2-2,0.6
			s-0.7,0.9-0.7,1.5c0,0.6,0.3,1,0.8,1.4s1.4,0.6,2.7,0.9s2.3,0.5,3.2,0.9c2.7,1,4,2.7,4,5.1c0,1.7-0.7,3.1-2.2,4.2
			s-3.4,1.6-5.8,1.6c-1.6,0-3-0.3-4.2-0.9s-2.2-1.3-2.9-2.3c-0.7-1-1.1-2.1-1.1-3.2h4.8c0,0.9,0.4,1.6,1,2.1s1.5,0.7,2.5,0.7
			c1,0,1.7-0.2,2.2-0.6S216.6,125.9,216.6,125.3z"/>
		<path class="st1" d="M224.7,106.6c0-0.8,0.3-1.4,0.8-1.9s1.2-0.7,2.1-0.7c0.9,0,1.6,0.2,2.1,0.7s0.8,1.1,0.8,1.9
			c0,0.8-0.3,1.4-0.8,1.9s-1.2,0.7-2.1,0.7s-1.5-0.2-2.1-0.7S224.7,107.4,224.7,106.6z M230.1,130.6H225v-19h5.1V130.6z"/>
		<path class="st1" d="M239,111.6l0.2,2.2c1.4-1.7,3.2-2.5,5.5-2.5c2,0,3.5,0.6,4.5,1.8s1.5,3,1.5,5.3v12.3h-5.1v-12.2
			c0-1.1-0.2-1.9-0.7-2.3s-1.2-0.7-2.3-0.7c-1.4,0-2.5,0.6-3.2,1.8v13.4h-5.1v-19H239z"/>
		<path class="st1" d="M263.2,130.9c-2.8,0-5.1-0.9-6.8-2.6c-1.8-1.7-2.6-4-2.6-6.8V121c0-1.9,0.4-3.6,1.1-5.1s1.8-2.7,3.1-3.5
			s2.9-1.2,4.6-1.2c2.6,0,4.6,0.8,6.1,2.5s2.2,4,2.2,7v2.1h-12.1c0.2,1.2,0.7,2.2,1.5,3s1.9,1.1,3.1,1.1c2,0,3.5-0.7,4.6-2.1
			l2.5,2.8c-0.8,1.1-1.8,1.9-3.1,2.5S264.8,130.9,263.2,130.9z M262.7,115.3c-1,0-1.8,0.3-2.5,1c-0.6,0.7-1,1.7-1.2,2.9h7.1v-0.4
			c0-1.1-0.3-2-0.9-2.6C264.6,115.6,263.7,115.3,262.7,115.3z"/>
		<path class="st1" d="M284.2,125.3c0-0.6-0.3-1.1-0.9-1.5s-1.6-0.7-3-1c-4.5-0.9-6.8-2.9-6.8-5.8c0-1.7,0.7-3.1,2.1-4.2
			s3.2-1.7,5.5-1.7c2.4,0,4.3,0.6,5.8,1.7s2.2,2.6,2.2,4.4H284c0-0.7-0.2-1.3-0.7-1.8s-1.2-0.7-2.2-0.7c-0.9,0-1.5,0.2-2,0.6
			s-0.7,0.9-0.7,1.5c0,0.6,0.3,1,0.8,1.4s1.4,0.6,2.7,0.9s2.3,0.5,3.2,0.9c2.7,1,4,2.7,4,5.1c0,1.7-0.7,3.1-2.2,4.2
			s-3.4,1.6-5.8,1.6c-1.6,0-3-0.3-4.2-0.9s-2.2-1.3-2.9-2.3c-0.7-1-1.1-2.1-1.1-3.2h4.8c0,0.9,0.4,1.6,1,2.1s1.5,0.7,2.5,0.7
			c1,0,1.7-0.2,2.2-0.6S284.2,125.9,284.2,125.3z"/>
		<path class="st1" d="M302.8,125.3c0-0.6-0.3-1.1-0.9-1.5s-1.6-0.7-3-1c-4.5-0.9-6.8-2.9-6.8-5.8c0-1.7,0.7-3.1,2.1-4.2
			s3.2-1.7,5.5-1.7c2.4,0,4.3,0.6,5.8,1.7s2.2,2.6,2.2,4.4h-5.1c0-0.7-0.2-1.3-0.7-1.8s-1.2-0.7-2.2-0.7c-0.9,0-1.5,0.2-2,0.6
			s-0.7,0.9-0.7,1.5c0,0.6,0.3,1,0.8,1.4s1.4,0.6,2.7,0.9s2.3,0.5,3.2,0.9c2.7,1,4,2.7,4,5.1c0,1.7-0.7,3.1-2.2,4.2
			s-3.4,1.6-5.8,1.6c-1.6,0-3-0.3-4.2-0.9s-2.2-1.3-2.9-2.3c-0.7-1-1.1-2.1-1.1-3.2h4.8c0,0.9,0.4,1.6,1,2.1s1.5,0.7,2.5,0.7
			c1,0,1.7-0.2,2.2-0.6S302.8,125.9,302.8,125.3z"/>
	</g>
</g>
<g>
	<g>
		<path class="st3" d="M46.4,69.4"/>
	</g>
</g>
</svg>
