<?xml version="1.0" encoding="utf-8"?>
<!-- Generator: Adobe Illustrator 25.2.3, SVG Export Plug-In . SVG Version: 6.00 Build 0)  -->
<svg version="1.1" id="Layer_1" xmlns="http://www.w3.org/2000/svg" xmlns:xlink="http://www.w3.org/1999/xlink" x="0px" y="0px"
	 viewBox="0 0 300 100" style="enable-background:new 0 0 300 100;" xml:space="preserve">
<style type="text/css">
	.st0{fill:url(#SVGID_1_);}
	.st1{fill:url(#SVGID_2_);}
	.st2{fill:url(#SVGID_3_);}
	.st3{fill:url(#SVGID_4_);}
	.st4{fill:url(#SVGID_5_);}
	.st5{fill:url(#SVGID_6_);}
	.st6{fill:url(#SVGID_7_);}
	.st7{fill:url(#SVGID_8_);}
	.st8{fill:url(#SVGID_9_);}
	.st9{fill:url(#SVGID_10_);}
	.st10{fill:none;}
	.st11{fill:#FFFFFF;}
</style>
<g>
	<g>
		<linearGradient id="SVGID_1_" gradientUnits="userSpaceOnUse" x1="127.1356" y1="66.3273" x2="129.8236" y2="69.0153">
			<stop  offset="2.024560e-07" style="stop-color:#FCEE21"/>
			<stop  offset="1" style="stop-color:#F7931E"/>
		</linearGradient>
		<path class="st0" d="M129.8,63.6l-5.4,5.4c-0.7,0.7-0.7,1.9,0,2.7c0.4,0.4,0.9,0.6,1.3,0.6c0.5,0,1-0.2,1.3-0.6l5.4-5.4
			c0.7-0.7,0.7-1.9,0-2.7C131.8,62.9,130.6,62.9,129.8,63.6L129.8,63.6z"/>
		<linearGradient id="SVGID_2_" gradientUnits="userSpaceOnUse" x1="116.3256" y1="42.9179" x2="122.8159" y2="49.4082">
			<stop  offset="2.024560e-07" style="stop-color:#FCEE21"/>
			<stop  offset="1" style="stop-color:#F7931E"/>
		</linearGradient>
		<path class="st1" d="M125.3,46.2c0-1-0.9-1.9-1.9-1.9h-7.6c-1,0-1.9,0.9-1.9,1.9c0,1,0.9,1.9,1.9,1.9h7.6
			C124.4,48.1,125.3,47.2,125.3,46.2L125.3,46.2z"/>
		<linearGradient id="SVGID_3_" gradientUnits="userSpaceOnUse" x1="146.7428" y1="12.5008" x2="153.2331" y2="18.991">
			<stop  offset="2.024560e-07" style="stop-color:#FCEE21"/>
			<stop  offset="1" style="stop-color:#F7931E"/>
		</linearGradient>
		<path class="st2" d="M150,21.4c1,0,1.9-0.9,1.9-1.9v-7.6c0-1-0.9-1.9-1.9-1.9c-1,0-1.9,0.9-1.9,1.9v7.6
			C148.1,20.6,148.9,21.4,150,21.4L150,21.4z"/>
		<linearGradient id="SVGID_4_" gradientUnits="userSpaceOnUse" x1="170.1522" y1="23.3107" x2="172.8402" y2="25.9987">
			<stop  offset="2.024560e-07" style="stop-color:#FCEE21"/>
			<stop  offset="1" style="stop-color:#F7931E"/>
		</linearGradient>
		<path class="st3" d="M168.8,29.2c0.5,0,1-0.2,1.3-0.6l5.4-5.4c0.7-0.7,0.7-1.9,0-2.7c-0.7-0.7-1.9-0.7-2.7,0l-5.4,5.4
			c-0.7,0.7-0.7,1.9,0,2.7C167.8,29.1,168.3,29.2,168.8,29.2L168.8,29.2z"/>
		<linearGradient id="SVGID_5_" gradientUnits="userSpaceOnUse" x1="124.4472" y1="20.6222" x2="132.5122" y2="28.6873">
			<stop  offset="2.024560e-07" style="stop-color:#FCEE21"/>
			<stop  offset="1" style="stop-color:#F7931E"/>
		</linearGradient>
		<path class="st4" d="M129.8,28.7c0.4,0.4,0.9,0.6,1.3,0.6c0.5,0,1-0.2,1.3-0.6c0.7-0.7,0.7-1.9,0-2.7l-5.4-5.4
			c-0.7-0.7-1.9-0.7-2.7,0c-0.7,0.7-0.7,1.9,0,2.7L129.8,28.7z"/>
		<linearGradient id="SVGID_6_" gradientUnits="userSpaceOnUse" x1="177.16" y1="42.9179" x2="183.6503" y2="49.4082">
			<stop  offset="2.024560e-07" style="stop-color:#FCEE21"/>
			<stop  offset="1" style="stop-color:#F7931E"/>
		</linearGradient>
		<path class="st5" d="M184.2,44.3h-7.6c-1,0-1.9,0.9-1.9,1.9c0,1,0.9,1.9,1.9,1.9h7.6c1,0,1.9-0.9,1.9-1.9
			C186.1,45.1,185.3,44.3,184.2,44.3L184.2,44.3z"/>
		<linearGradient id="SVGID_7_" gradientUnits="userSpaceOnUse" x1="167.4637" y1="63.6388" x2="175.5288" y2="71.7039">
			<stop  offset="2.024560e-07" style="stop-color:#FCEE21"/>
			<stop  offset="1" style="stop-color:#F7931E"/>
		</linearGradient>
		<path class="st6" d="M170.2,63.6c-0.7-0.7-1.9-0.7-2.7,0c-0.7,0.7-0.7,1.9,0,2.7l5.4,5.4c0.4,0.4,0.9,0.6,1.3,0.6
			c0.5,0,1-0.2,1.3-0.6c0.7-0.7,0.7-1.9,0-2.7L170.2,63.6z"/>
	</g>
	<g>
		<linearGradient id="SVGID_8_" gradientUnits="userSpaceOnUse" x1="144.841" y1="79.0387" x2="155.1355" y2="89.3332">
			<stop  offset="3.409785e-07" style="stop-color:#7657FC"/>
			<stop  offset="1" style="stop-color:#00BCD4"/>
		</linearGradient>
		<path class="st7" d="M159.4,84.8c-0.3,0.8-1.1,1.3-1.9,1.3h0c-1.1,0-2.1,0.6-2.6,1.6l0,0c-0.7,1.3-2,2.2-3.5,2.2h-2.8
			c-1.5,0-2.8-0.8-3.5-2.2l0,0c-0.5-1-1.5-1.6-2.6-1.6h0c-0.8,0-1.6-0.5-1.9-1.3c-0.4-1.3,0.6-2.5,1.8-2.5h15.2
			C158.8,82.3,159.8,83.5,159.4,84.8L159.4,84.8z"/>
		<linearGradient id="SVGID_9_" gradientUnits="userSpaceOnUse" x1="144.8418" y1="74.2857" x2="155.1341" y2="84.578">
			<stop  offset="3.409785e-07" style="stop-color:#7657FC"/>
			<stop  offset="1" style="stop-color:#00BCD4"/>
		</linearGradient>
		<path class="st8" d="M157.6,77.5h-15.2c-1,0-1.9,0.9-1.9,1.9c0,1,0.9,1.9,1.9,1.9h15.2c1,0,1.9-0.9,1.9-1.9
			C159.5,78.4,158.6,77.5,157.6,77.5L157.6,77.5z"/>
		<linearGradient id="SVGID_10_" gradientUnits="userSpaceOnUse" x1="133.4661" y1="35.4059" x2="166.5098" y2="68.4496">
			<stop  offset="3.409785e-07" style="stop-color:#7657FC"/>
			<stop  offset="1" style="stop-color:#00BCD4"/>
		</linearGradient>
		<path class="st9" d="M159.5,74.7c0,1-0.9,1.9-1.9,1.9h-15.2c-1,0-1.9-0.9-1.9-1.9c0-1,0.8-1.8,1.8-1.9
			C141.1,62.1,130,59.7,130,47.1c0-11,8.9-20,20-20c11,0,20,8.9,20,20c0,12.6-11.1,15-12.2,25.7C158.7,72.8,159.5,73.7,159.5,74.7
			L159.5,74.7z"/>
	</g>
	<path d="M157.6,42.3"/>
	<rect x="113.9" y="10" class="st10" width="72.3" height="80"/>
	<path class="st11" d="M155.4,41.3c-2-0.5-4,0.9-5.3,2.4c-1.3-1.5-3.4-2.9-5.5-2.4c-2,0.5-3.5,2.1-3.9,4.1c-0.4,1.7,0.2,3,0.7,4.2
		l0,0c1.7,3.6,4.7,6.6,8.3,8.5l0.2,0.1l0.2-0.1c3.7-1.9,6.7-4.9,8.5-8.6l0.2-0.3c0.5-1.2,1.1-2.4,0.5-4.2
		C158.7,43.3,157.2,41.8,155.4,41.3z"/>
</g>
</svg>
