<?xml version="1.0" encoding="utf-8"?>
<!-- Generator: Adobe Illustrator 25.2.3, SVG Export Plug-In . SVG Version: 6.00 Build 0)  -->
<svg version="1.1" id="Layer_1" xmlns="http://www.w3.org/2000/svg" xmlns:xlink="http://www.w3.org/1999/xlink" x="0px" y="0px"
	 viewBox="0 0 300 100" style="enable-background:new 0 0 300 100;" xml:space="preserve">
<style type="text/css">
	.st0{fill:url(#SVGID_1_);}
	.st1{fill:url(#SVGID_2_);}
	.st2{fill:#FFFFFF;}
	.st3{fill:url(#SVGID_3_);}
	.st4{fill:none;}
	.st5{fill:url(#SVGID_4_);}
</style>
<g>
	<g>
		<linearGradient id="SVGID_1_" gradientUnits="userSpaceOnUse" x1="166.1512" y1="76.0909" x2="115.6228" y2="25.5625">
			<stop  offset="3.409785e-07" style="stop-color:#7657FC"/>
			<stop  offset="1" style="stop-color:#00BCD4"/>
		</linearGradient>
		<path class="st0" d="M161.2,21.8h-40.6c-1.6,0-2.9,1.3-2.9,2.9v52.2c0,1.6,1.3,2.9,2.9,2.9h40.6c1.6,0,2.9-1.3,2.9-2.9V24.7
			C164.1,23.1,162.8,21.8,161.2,21.8L161.2,21.8z"/>
		<linearGradient id="SVGID_2_" gradientUnits="userSpaceOnUse" x1="132.1825" y1="30.9994" x2="149.5918" y2="30.9994">
			<stop  offset="2.024560e-07" style="stop-color:#FCEE21"/>
			<stop  offset="1" style="stop-color:#F7931E"/>
		</linearGradient>
		<path class="st1" d="M132.2,30.5c0-0.5,0.4-1,1-1h15.5c0.5,0,1,0.4,1,1v1c0,0.5-0.4,1-1,1h-15.5c-0.5,0-1-0.4-1-1V30.5z"/>
		<g>
			<path class="st2" d="M125.4,39.2c0-0.5,0.4-1,1-1h29c0.5,0,1,0.4,1,1v0c0,0.5-0.4,1-1,1h-29C125.8,40.2,125.4,39.8,125.4,39.2
				L125.4,39.2z"/>
			<path class="st2" d="M125.4,46c0-0.5,0.4-1,1-1h29c0.5,0,1,0.4,1,1v0c0,0.5-0.4,1-1,1h-29C125.8,47,125.4,46.5,125.4,46L125.4,46
				z"/>
			<path class="st2" d="M125.4,51.8c0-0.5,0.4-1,1-1h29c0.5,0,1,0.4,1,1v0c0,0.5-0.4,1-1,1h-29C125.8,52.8,125.4,52.3,125.4,51.8
				L125.4,51.8z"/>
			<path class="st2" d="M125.4,57.6c0-0.5,0.4-1,1-1h29c0.5,0,1,0.4,1,1v0c0,0.5-0.4,1-1,1h-29C125.8,58.6,125.4,58.1,125.4,57.6
				L125.4,57.6z"/>
			<path class="st2" d="M125.4,64.4L125.4,64.4c0-0.5,0.4-1,1-1h29c0.5,0,1,0.4,1,1v0c0,0.5-0.4,1-1,1h-29
				C125.8,65.3,125.4,64.9,125.4,64.4L125.4,64.4z"/>
		</g>
		<path class="st2" d="M155.7,71.8c-0.7-0.7-0.7-0.7-2.2-0.7c-0.8,0-1.4,0.2-2.1,0.4c-0.7,0.3-1.6,0.5-2.7,0.5c-1.6,0-2.1-1-2.3-1.5
			c-0.2-0.4-0.2-0.4-0.6-0.4c-0.9,0-1,1.9-1,1.9l-1.9,0c0-1.3,0.6-3.9,2.9-3.9c1.6,0,2.1,1,2.3,1.5c0.2,0.4,0.2,0.4,0.6,0.4
			c0.8,0,1.4-0.2,2.1-0.4c0.7-0.3,1.6-0.5,2.7-0.5c2.1,0,2.4,0,3.6,1.3L155.7,71.8z"/>
		<linearGradient id="SVGID_3_" gradientUnits="userSpaceOnUse" x1="155.6779" y1="71.8213" x2="155.6779" y2="71.8213">
			<stop  offset="0" style="stop-color:#7657FC"/>
			<stop  offset="1" style="stop-color:#B4A4FD"/>
		</linearGradient>
		<path class="st3" d="M155.7,71.8"/>
		<rect x="117.7" y="21.7" class="st4" width="46.4" height="58.2"/>
	</g>
	<g>
		<linearGradient id="SVGID_4_" gradientUnits="userSpaceOnUse" x1="147.0018" y1="50.3174" x2="178.4783" y2="81.7938">
			<stop  offset="2.024560e-07" style="stop-color:#FCEE21"/>
			<stop  offset="1" style="stop-color:#F7931E"/>
		</linearGradient>
		<path class="st5" d="M188.6,58.9c-0.4-0.3-1-0.2-1.3,0.3c-0.5,0.7-1.2,1.1-1.7,1.2c0-1.1-0.5-2.2-1.5-3.2
			c-0.9-0.9-2.3-1.1-3.2-0.4c-0.7,0.5-1.2,1.6-0.5,3.1c0.5,0.9,1.3,1.7,2.4,2.1c-0.2,0.1-0.4,0.3-0.7,0.4c-0.6,0.3-1.1,0.5-1.7,0.5
			c-2.7-5.5-9.7-9.4-17.9-9.4c-1.6,0-3.2,0.1-4.6,0.3c-2.4-1.5-6.7-3.4-11.1-3.1c0.2,1.8,1.3,4.2,2.8,5.8c-2.8,1.7-4.6,4.1-5.5,6.8
			c-1.1,0.5-2.2,0.8-3.5,0.8c-0.9,0.1-1.6,0.9-1.6,1.8c0.2,2.4,0.9,6.5,3.7,7.6c0.5,0.2,1.4,0.3,2.4,0.4c1.2,2,3,3.7,5.1,5
			c-0.4,1.8-0.8,3.6-1.4,5.5c-0.2,0.8,0.4,1.6,1.2,1.6h5.3c0.5,0,1-0.3,1.2-0.8c0.4-1.1,0.8-2.3,1.1-3.4c1.6,0.3,3.2,0.5,4.9,0.5
			c2,0,3.9-0.2,5.6-0.6c-0.2,0.9-0.5,1.9-0.8,2.8c-0.2,0.8,0.4,1.6,1.2,1.6h5.3c0.5,0,1-0.3,1.2-0.8c0.9-2.5,1.6-5.2,1.9-8
			c2.9-2.5,4.6-5.8,4.6-9.4c0-1.1-0.2-2.2-0.5-3.2c0.6-0.1,1.2-0.3,1.8-0.6c1-0.5,1.7-1.1,2.1-1.7c1.6,0,3.1-0.8,3.9-2.1
			C189.2,59.7,189.1,59.1,188.6,58.9z M182.1,58.9c-0.2-0.4-0.2-0.7-0.1-0.7c0,0,0.1,0,0.2,0c0.2,0,0.4,0.1,0.6,0.3
			c0.6,0.6,0.9,1.2,1,1.8C183,60,182.4,59.5,182.1,58.9z"/>
		<path class="st2" d="M151.2,63.4c-0.9,0-1.6-0.7-1.6-1.6c0-0.9,0.7-1.6,1.6-1.6c0.9,0,1.6,0.7,1.6,1.6
			C152.7,62.7,152,63.4,151.2,63.4L151.2,63.4z"/>
		<path class="st2" d="M167.6,65.2c-0.7,0.2-1.4-0.1-1.6-0.8c-0.2-0.5-0.8-1-1.9-1c-0.9,0-1.5,0.6-1.5,1.2c-0.1,0.7,0.6,1.3,1.8,1.6
			c2.8,0.6,3.9,2.6,3.8,4.3c-0.2,1.5-1.3,2.8-2.8,3.2v0.8c0,0.7-0.6,1.3-1.3,1.3c-0.7,0-1.3-0.6-1.3-1.3v-0.7
			c-1.7-0.4-2.7-1.6-3.1-2.6c-0.2-0.7,0.1-1.4,0.8-1.6c0.7-0.2,1.4,0.1,1.6,0.8c0.2,0.5,0.8,1,1.9,1c0.9,0,1.5-0.6,1.5-1.2
			c0.1-0.7-0.6-1.3-1.8-1.6c-2.8-0.6-3.9-2.6-3.8-4.3c0.2-1.5,1.3-2.8,2.8-3.2v-0.8c0-0.7,0.6-1.3,1.3-1.3c0.7,0,1.3,0.6,1.3,1.3V61
			c1.7,0.4,2.7,1.6,3.1,2.6C168.6,64.3,168.2,65,167.6,65.2L167.6,65.2z"/>
		<path d="M182.1,58.9"/>
		<rect x="139" y="50.5" class="st4" width="50.1" height="35.5"/>
	</g>
</g>
</svg>
