<?xml version="1.0" encoding="utf-8"?>
<!-- Generator: Adobe Illustrator 25.2.3, SVG Export Plug-In . SVG Version: 6.00 Build 0)  -->
<svg version="1.1" id="Layer_1" xmlns="http://www.w3.org/2000/svg" xmlns:xlink="http://www.w3.org/1999/xlink" x="0px" y="0px"
	 viewBox="0 0 300 100" style="enable-background:new 0 0 300 100;" xml:space="preserve">
<style type="text/css">
	.st0{fill:url(#SVGID_1_);}
	.st1{fill:url(#SVGID_2_);}
	.st2{fill:url(#SVGID_3_);}
	.st3{fill:url(#SVGID_4_);}
	.st4{fill:#FFFFFF;}
	.st5{fill:none;}
</style>
<g>
	<linearGradient id="SVGID_1_" gradientUnits="userSpaceOnUse" x1="113.2633" y1="56.6583" x2="186.686" y2="56.6583">
		<stop  offset="3.409785e-07" style="stop-color:#7657FC"/>
		<stop  offset="1" style="stop-color:#00BCD4"/>
	</linearGradient>
	<path class="st0" d="M186.7,68c0,9.4-7.7,17.1-17.1,17.1c-6.7,0-12.5-3.9-15.3-9.6h-36c-2.8,0-5-2.3-5-5V33.3c0-2.8,2.3-5,5-5h4v2
		c0,2.8,2.3,5,5,5c2.8,0,5-2.3,5-5v-2h19.1v2c0,2.8,2.3,5,5,5c2.8,0,5-2.3,5-5v-2h4c2.8,0,5,2.3,5,5v17.7
		C179.6,51.4,186.7,58.9,186.7,68L186.7,68z"/>
	<linearGradient id="SVGID_2_" gradientUnits="userSpaceOnUse" x1="156.5123" y1="67.9735" x2="182.6632" y2="67.9735">
		<stop  offset="2.024560e-07" style="stop-color:#FCEE21"/>
		<stop  offset="1" style="stop-color:#F7931E"/>
	</linearGradient>
	<path class="st1" d="M182.7,68c0-7.2-5.9-13.1-13.1-13.1c-7.2,0-13.1,5.9-13.1,13.1S162.4,81,169.6,81
		C176.8,81,182.7,75.2,182.7,68L182.7,68z"/>
	<linearGradient id="SVGID_3_" gradientUnits="userSpaceOnUse" x1="124.3271" y1="26.7361" x2="130.3618" y2="26.7361">
		<stop  offset="3.409785e-07" style="stop-color:#7657FC"/>
		<stop  offset="1" style="stop-color:#00BCD4"/>
	</linearGradient>
	<path class="st2" d="M124.3,30.3v-7c0-1.7,1.3-3,3-3c1.7,0,3,1.3,3,3v7c0,1.7-1.3,3-3,3C125.7,33.3,124.3,31.9,124.3,30.3
		L124.3,30.3z"/>
	<linearGradient id="SVGID_4_" gradientUnits="userSpaceOnUse" x1="153.4951" y1="26.7361" x2="159.5298" y2="26.7361">
		<stop  offset="3.409785e-07" style="stop-color:#7657FC"/>
		<stop  offset="1" style="stop-color:#00BCD4"/>
	</linearGradient>
	<path class="st3" d="M156.5,33.3c1.7,0,3-1.3,3-3v-7c0-1.7-1.3-3-3-3c-1.7,0-3,1.3-3,3v7C153.5,31.9,154.8,33.3,156.5,33.3
		L156.5,33.3z"/>
	<path class="st4" d="M174.6,66.5h-3v-7c0-1.1-0.9-2-2-2c-1.1,0-2,0.9-2,2v9.1c0,1.1,0.9,2,2,2h5c1.1,0,2-0.9,2-2
		C176.6,67.4,175.7,66.5,174.6,66.5L174.6,66.5z"/>
	<path class="st4" d="M150.6,42.5h-16.3V47h11.3c-2.3,2.8-4.1,5.8-5.5,9.1c-1.4,3.3-2.2,6.7-2.5,10.3h5.2c0-1.6,0.2-3.3,0.6-5.2
		c0.4-1.9,0.9-3.7,1.5-5.5c0.7-1.8,1.5-3.5,2.4-5.1c1-1.6,2.1-2.9,3.3-4V42.5z"/>
	<path d="M182.7,68"/>
	<rect x="113.3" y="20.1" class="st5" width="73.5" height="65.1"/>
</g>
</svg>
