<?xml version="1.0" encoding="utf-8"?>
<!-- Generator: Adobe Illustrator 25.2.3, SVG Export Plug-In . SVG Version: 6.00 Build 0)  -->
<svg version="1.1" id="Layer_1" xmlns="http://www.w3.org/2000/svg" xmlns:xlink="http://www.w3.org/1999/xlink" x="0px" y="0px"
	 viewBox="0 0 300 100" style="enable-background:new 0 0 300 100;" xml:space="preserve">
<style type="text/css">
	.st0{fill:url(#SVGID_1_);}
	.st1{fill:#FFFFFF;}
	.st2{fill:url(#SVGID_2_);}
	.st3{fill:none;}
	.st4{fill:url(#SVGID_3_);}
	.st5{fill:url(#SVGID_4_);}
</style>
<g>
	
		<linearGradient id="SVGID_1_" gradientUnits="userSpaceOnUse" x1="115.3708" y1="78.3984" x2="184.56" y2="9.2091" gradientTransform="matrix(1 0 0 -1 0 102)">
		<stop  offset="3.409785e-07" style="stop-color:#7657FC"/>
		<stop  offset="1" style="stop-color:#00BCD4"/>
	</linearGradient>
	<path class="st0" d="M183.3,64.2V24.7c0-3-2.3-5.4-5.1-5.4h-56.5c-2.8,0-5.1,2.4-5.1,5.4v39.5l-11.6,15v1.4c0,2.3,1.7,4.1,3.9,4.1
		h82.2c2.1,0,3.9-1.8,3.9-4.1v-1.4L183.3,64.2z"/>
	<polygon class="st1" points="141,76.5 143.5,72.4 156.4,72.4 158.9,76.5 	"/>
	<path class="st1" d="M179.5,58.8c0,0.8-0.6,1.4-1.3,1.4h-56.5c-0.7,0-1.3-0.6-1.3-1.4v-34c0-0.8,0.6-1.4,1.3-1.4h56.5
		c0.7,0,1.3,0.6,1.3,1.4V58.8z"/>
	
		<linearGradient id="SVGID_2_" gradientUnits="userSpaceOnUse" x1="155.0864" y1="70.7192" x2="165.8675" y2="59.9381" gradientTransform="matrix(1 0 0 -1 0 102)">
		<stop  offset="2.024560e-07" style="stop-color:#FCEE21"/>
		<stop  offset="1" style="stop-color:#F7931E"/>
	</linearGradient>
	<path class="st2" d="M172,32.2c0,1.1-0.9,2-1.9,2c-0.1,0-0.3,0-0.4-0.1l-4.1,6c0.2,0.3,0.3,0.7,0.3,1c0,1.1-0.9,2-1.9,2
		s-1.9-0.9-1.9-2c0-0.3,0.1-0.6,0.2-0.9l-4.8-6.1c-0.1,0-0.3,0.1-0.5,0.1c-0.1,0-0.2,0-0.4,0l-4.1,6c0.2,0.3,0.3,0.6,0.3,1
		c0,1.1-0.9,2-1.9,2c-1.1,0-1.9-0.9-1.9-2s0.9-2,1.9-2c0.1,0,0.3,0,0.4,0.1l4.1-5.9c-0.2-0.3-0.3-0.7-0.3-1.1c0-1.1,0.9-2,1.9-2
		c1.1,0,1.9,0.9,1.9,2c0,0.4-0.1,0.7-0.2,1l4.7,6.1c0.2-0.1,0.3-0.1,0.5-0.1c0.1,0,0.3,0,0.4,0l4.1-6c-0.2-0.3-0.3-0.7-0.3-1
		c0-1.1,0.9-2,1.9-2C171.2,30.1,172,31.1,172,32.2L172,32.2z"/>
	<path d="M169.2,36.3"/>
	<rect x="105" y="19.3" class="st3" width="90" height="65.5"/>
	
		<linearGradient id="SVGID_3_" gradientUnits="userSpaceOnUse" x1="123.625" y1="71.325" x2="147.775" y2="47.175" gradientTransform="matrix(1 0 0 -1 0 102)">
		<stop  offset="2.024560e-07" style="stop-color:#FCEE21"/>
		<stop  offset="1" style="stop-color:#F7931E"/>
	</linearGradient>
	<rect x="125.5" y="28.8" class="st4" width="20.4" height="27.9"/>
	<g>
		
			<linearGradient id="SVGID_4_" gradientUnits="userSpaceOnUse" x1="149.7" y1="49.35" x2="172.9" y2="49.35" gradientTransform="matrix(1 0 0 -1 0 102)">
			<stop  offset="2.024560e-07" style="stop-color:#FCEE21"/>
			<stop  offset="1" style="stop-color:#F7931E"/>
		</linearGradient>
		<rect x="149.7" y="49.1" class="st5" width="23.2" height="7.1"/>
	</g>
</g>
</svg>
