<?xml version="1.0" encoding="utf-8"?>
<!-- Generator: Adobe Illustrator 25.2.3, SVG Export Plug-In . SVG Version: 6.00 Build 0)  -->
<svg version="1.1" id="Layer_1" xmlns="http://www.w3.org/2000/svg" xmlns:xlink="http://www.w3.org/1999/xlink" x="0px" y="0px"
	 viewBox="0 0 300 100" style="enable-background:new 0 0 300 100;" xml:space="preserve">
<style type="text/css">
	.st0{fill:url(#SVGID_1_);}
	.st1{fill:url(#SVGID_2_);}
	.st2{fill:url(#SVGID_3_);}
	.st3{fill:url(#SVGID_4_);}
	.st4{fill:#FFFFFF;}
	.st5{fill:url(#SVGID_5_);}
	.st6{fill:url(#SVGID_6_);}
</style>
<g>
	<linearGradient id="SVGID_1_" gradientUnits="userSpaceOnUse" x1="135.3758" y1="39.7212" x2="165.8447" y2="70.1902">
		<stop  offset="3.409785e-07" style="stop-color:#7657FC"/>
		<stop  offset="1" style="stop-color:#00BCD4"/>
	</linearGradient>
	<path class="st0" d="M184.4,42.6c0,3.1-2.5,5.6-5.6,5.6c-0.4,0-0.8-0.1-1.2-0.1l-12,16.4c0.5,0.8,0.8,1.8,0.8,2.8
		c0,3.1-2.5,5.6-5.6,5.6s-5.6-2.5-5.6-5.6c0-0.9,0.2-1.8,0.6-2.5L141.8,48c-0.4,0.1-0.9,0.2-1.3,0.2c-0.4,0-0.7,0-1.1-0.1
		l-12.1,16.4c0.5,0.8,0.8,1.8,0.8,2.8c0,3.1-2.5,5.6-5.6,5.6c-3.1,0-5.6-2.5-5.6-5.6c0-3.1,2.5-5.6,5.6-5.6c0.4,0,0.8,0.1,1.2,0.1
		l12-16.3c-0.5-0.9-0.9-1.9-0.9-3c0-3.1,2.5-5.6,5.6-5.6c3.1,0,5.6,2.5,5.6,5.6c0,1-0.3,1.9-0.7,2.7l13.8,16.7
		c0.5-0.1,1-0.2,1.5-0.2c0.4,0,0.8,0.1,1.2,0.1l12-16.4c-0.5-0.8-0.8-1.8-0.8-2.8c0-3.1,2.5-5.6,5.6-5.6
		C181.9,36.9,184.4,39.5,184.4,42.6L184.4,42.6z"/>
	<g>
		<linearGradient id="SVGID_2_" gradientUnits="userSpaceOnUse" x1="110.0161" y1="60.5601" x2="127.1137" y2="77.6577">
			<stop  offset="3.409785e-07" style="stop-color:#7657FC"/>
			<stop  offset="1" style="stop-color:#00BCD4"/>
		</linearGradient>
		<path class="st1" d="M118.6,57c-6.7,0-12.1,5.4-12.1,12.1c0,6.7,5.4,12.1,12.1,12.1c6.7,0,12.1-5.4,12.1-12.1
			C130.7,62.4,125.2,57,118.6,57L118.6,57z"/>
		<linearGradient id="SVGID_3_" gradientUnits="userSpaceOnUse" x1="115.8541" y1="64.539" x2="122.6698" y2="71.3547">
			<stop  offset="0" style="stop-color:#FEE183"/>
			<stop  offset="1" style="stop-color:#F6C336"/>
		</linearGradient>
		<path class="st2" d="M126.5,66.6L119,75c-0.4,0.4-0.9,0.6-1.4,0.6c-0.4,0-0.8-0.1-1.2-0.4l-4.6-3.7c-0.8-0.6-0.9-1.8-0.3-2.6
			c0.6-0.8,1.8-0.9,2.6-0.3l3.3,2.6l6.3-7.1c0.7-0.8,1.9-0.8,2.6-0.2C127.1,64.7,127.1,65.9,126.5,66.6L126.5,66.6z"/>
		<path d="M126.5,66.6"/>
	</g>
	<g>
		<linearGradient id="SVGID_4_" gradientUnits="userSpaceOnUse" x1="129.7454" y1="30.6448" x2="146.8429" y2="47.7424">
			<stop  offset="3.409785e-07" style="stop-color:#7657FC"/>
			<stop  offset="1" style="stop-color:#00BCD4"/>
		</linearGradient>
		<path class="st3" d="M138.3,27.1c-6.7,0-12.1,5.4-12.1,12.1c0,6.7,5.4,12.1,12.1,12.1c6.7,0,12.1-5.4,12.1-12.1
			C150.4,32.5,145,27.1,138.3,27.1L138.3,27.1z"/>
		<path d="M146.2,36.7"/>
		<g>
			<path class="st4" d="M132.5,42.9l5.1-3.9c1.3-1,1.7-1.6,1.7-2.4c0-0.9-0.6-1.4-1.5-1.4s-1.6,0.5-2.7,1.7l-2.5-2.1
				c1.5-1.9,2.9-2.9,5.5-2.9c3,0,5,1.8,5,4.3v0c0,2.2-1.1,3.3-3.1,4.7l-2.3,1.6h5.6v3.1h-10.7V42.9z"/>
		</g>
	</g>
	<g>
		<linearGradient id="SVGID_5_" gradientUnits="userSpaceOnUse" x1="151.6154" y1="60.5601" x2="168.713" y2="77.6577">
			<stop  offset="3.409785e-07" style="stop-color:#7657FC"/>
			<stop  offset="1" style="stop-color:#00BCD4"/>
		</linearGradient>
		<path class="st5" d="M160.2,57c-6.7,0-12.1,5.4-12.1,12.1c0,6.7,5.4,12.1,12.1,12.1c6.7,0,12.1-5.4,12.1-12.1
			C172.3,62.4,166.8,57,160.2,57L160.2,57z"/>
		<path d="M168.1,66.6"/>
		<g>
			<path class="st4" d="M154.4,74.4l2.4-2.4c1,1,2,1.5,3.2,1.5c1.1,0,1.7-0.5,1.7-1.4v0c0-0.9-0.8-1.4-2.2-1.4h-1.6l-0.5-2l3.1-2.8
				h-5.2v-3h9.8v2.7l-3.2,2.8c1.9,0.4,3.5,1.5,3.5,3.8v0c0,2.7-2.2,4.5-5.2,4.5C157.5,76.8,155.7,75.8,154.4,74.4z"/>
		</g>
	</g>
	<g>
		<linearGradient id="SVGID_6_" gradientUnits="userSpaceOnUse" x1="172.8863" y1="30.6448" x2="189.9839" y2="47.7424">
			<stop  offset="3.409785e-07" style="stop-color:#7657FC"/>
			<stop  offset="1" style="stop-color:#00BCD4"/>
		</linearGradient>
		<path class="st6" d="M181.4,27.1c-6.7,0-12.1,5.4-12.1,12.1c0,6.7,5.4,12.1,12.1,12.1c6.7,0,12.1-5.4,12.1-12.1
			C193.5,32.5,188.1,27.1,181.4,27.1L181.4,27.1z"/>
		<path d="M189.3,36.7"/>
		<g>
			<path class="st4" d="M181.8,43.7h-6.6l-0.6-2.7l7-8.4h3.8v8.2h1.7v2.8h-1.7v2.6h-3.6V43.7z M181.8,40.9V37l-3.2,3.9H181.8z"/>
		</g>
	</g>
</g>
</svg>
