<?xml version="1.0" encoding="utf-8"?>
<!-- Generator: Adobe Illustrator 25.2.3, SVG Export Plug-In . SVG Version: 6.00 Build 0)  -->
<svg version="1.1" id="Layer_1" xmlns="http://www.w3.org/2000/svg" xmlns:xlink="http://www.w3.org/1999/xlink" x="0px" y="0px"
	 viewBox="0 0 300 100" style="enable-background:new 0 0 300 100;" xml:space="preserve">
<style type="text/css">
	.st0{fill:url(#SVGID_1_);}
	.st1{fill:#FFFFFF;}
	.st2{fill:url(#SVGID_2_);}
	.st3{fill:url(#SVGID_3_);}
</style>
<g>
	<linearGradient id="SVGID_1_" gradientUnits="userSpaceOnUse" x1="148.6248" y1="38.0774" x2="186.2392" y2="38.0774">
		<stop  offset="2.024560e-07" style="stop-color:#FCEE21"/>
		<stop  offset="1" style="stop-color:#F7931E"/>
	</linearGradient>
	<path class="st0" d="M186.2,29v13.8c0,4.8-3.9,8.6-8.6,8.6h-14c-2.3,3.4-7.2,4.3-7.2,4.3l1.1-4.3h-0.2c-4.8,0-8.6-3.9-8.6-8.6V29
		c0-4.8,3.9-8.6,8.6-8.6h20.3C182.4,20.4,186.2,24.2,186.2,29L186.2,29z"/>
	<g>
		<rect x="165" y="42.4" class="st1" width="3.2" height="3.1"/>
		<path class="st1" d="M172.7,31.6c0-3.1-2.7-4.9-5.7-4.9c-3.1,0-4.9,1.9-4.9,1.9l1.8,2.3c0,0,1.3-1.1,2.8-1.1
			c1.4,0,2.5,0.9,2.5,2.2c0,2.7-4.3,3.3-4.3,7v1.2h3.2v-1C168.2,36.3,172.7,35.9,172.7,31.6L172.7,31.6z"/>
	</g>
	<g>
		<linearGradient id="SVGID_2_" gradientUnits="userSpaceOnUse" x1="124.5175" y1="40.7613" x2="142.4479" y2="58.6917">
			<stop  offset="3.409785e-07" style="stop-color:#7657FC"/>
			<stop  offset="1" style="stop-color:#00BCD4"/>
		</linearGradient>
		<path class="st2" d="M120.8,49.7c0-7,5.7-12.7,12.7-12.7c7,0,12.7,5.7,12.7,12.7c0,7-5.7,12.7-12.7,12.7
			C126.5,62.4,120.8,56.7,120.8,49.7L120.8,49.7z"/>
		<linearGradient id="SVGID_3_" gradientUnits="userSpaceOnUse" x1="120.7542" y1="65.4468" x2="146.2112" y2="90.9039">
			<stop  offset="3.409785e-07" style="stop-color:#7657FC"/>
			<stop  offset="1" style="stop-color:#00BCD4"/>
		</linearGradient>
		<path class="st3" d="M139.1,64.2h-11.3c-7.8,0-14.1,6.3-14.1,14.1v5.6h39.4v-5.6C153.2,70.5,146.9,64.2,139.1,64.2L139.1,64.2z"/>
	</g>
	<path d="M138.7,72.2"/>
</g>
</svg>
